<?xml version="1.0" standalone="no"?>
<!DOCTYPE svg PUBLIC "-//W3C//DTD SVG 1.1//EN" "http://www.w3.org/Graphics/SVG/1.1/DTD/svg11.dtd" >
<svg xmlns="http://www.w3.org/2000/svg" xmlns:xlink="http://www.w3.org/1999/xlink" version="1.1">
<metadata>
Created by FontForge 20170731 at Thu Nov 10 19:35:55 2022
 By Aleksey,,,
(c) Inter IKEA Systems B.V.. SWF-X by Digidea.
</metadata>
<defs>
<font id="IKEASans-Bold" horiz-adv-x="1292" >
  <font-face 
    font-family="IKEA Sans"
    font-weight="700"
    font-stretch="normal"
    units-per-em="2048"
    panose-1="0 11 6 0 5 3 2 2 2 4"
    ascent="1638"
    descent="-410"
    x-height="1006"
    cap-height="1424"
    bbox="-360 -512 2908 2368"
    underline-thickness="0"
    underline-position="-526"
    unicode-range="U+0020-215E"
  />
<missing-glyph horiz-adv-x="2048" 
d="M1792 0h-1536v1536h1536v-1536zM384 130v-2h1280v1280h-1280v-1280v2z" />
    <glyph glyph-name=".notdef" horiz-adv-x="2048" 
d="M1792 0h-1536v1536h1536v-1536zM384 130v-2h1280v1280h-1280v-1280v2z" />
    <glyph glyph-name=".null" horiz-adv-x="0" 
 />
    <glyph glyph-name="nonmarkingreturn" horiz-adv-x="682" 
 />
    <glyph glyph-name="space" unicode=" " horiz-adv-x="524" 
d="M0 0v2v-2z" />
    <glyph glyph-name="exclam" unicode="!" horiz-adv-x="658" 
d="M516 1466h-2l-16 -988h-338l-16 988h372zM540 176v2v2q0 -87 -60 -150q-62 -62 -148 -62q-87 0 -150 60q-62 62 -62 148q0 89 62 148q59 62 146 62q88 0 150 -62t62 -150v2z" />
    <glyph glyph-name="quotedbl" unicode="&#x22;" horiz-adv-x="954" 
d="M542 1424h320l-32 -552h-256zM412 1426v-2l-32 -552h-256l-32 552h320v2z" />
    <glyph glyph-name="numbersign" unicode="#" horiz-adv-x="1310" 
d="M1234 362h2h-300l-82 -392h-228l82 392h-256l-82 -392h-230l82 392h-152v230h198l52 242h-250v228h300l82 392h228l-82 -392h256l82 392h228l-82 -392h152v-228h-200l-52 -242h252v-230zM808 836v-2h-256l-52 -242h256l52 242v2z" />
    <glyph glyph-name="dollar" unicode="$" 
d="M990 1012l-2 -2q-194 112 -332 112q-66 0 -100 -28q-36 -27 -36 -72q0 -42 44 -68q45 -29 186 -76q248 -88 346 -192q100 -106 100 -284q0 -147 -108 -264q-106 -115 -300 -154v-268h-248v258q-270 36 -482 208l232 284q191 -164 352 -164q81 0 120 24q40 28 40 62
q0 35 -36 68q-32 30 -186 88q-168 61 -244 106q-86 51 -148 140q-60 87 -60 222q0 159 112 280q111 120 302 156v158h248v-154q183 -21 376 -134l-176 -308v2z" />
    <glyph glyph-name="percent" unicode="%" horiz-adv-x="1696" 
d="M1178 1478l168 -100l-828 -1428l-168 98zM410 1458v-2q160 0 262 -102q100 -103 100 -252q0 -150 -100 -250q-103 -100 -262 -100q-160 0 -260 100q-102 99 -102 250q0 146 100 252q98 104 262 104zM410 950q69 0 108 42q40 43 40 110q0 66 -40 112q-38 44 -108 44
t-108 -44q-40 -46 -40 -112q0 -67 40 -110q39 -42 108 -42zM1286 678v-2q160 0 262 -102t102 -252q0 -151 -102 -250q-103 -100 -262 -100q-160 0 -260 100q-102 99 -102 250q0 146 100 252q98 104 262 104zM1286 168v2q68 0 108 40q40 43 40 110q0 66 -40 112
q-38 44 -108 44t-108 -44q-40 -46 -40 -112q0 -67 40 -110q39 -42 108 -42z" />
    <glyph glyph-name="ampersand" unicode="&#x26;" horiz-adv-x="1534" 
d="M1536 4l-2 -4h-468l-88 98q-211 -140 -422 -140q-232 0 -362 100q-128 98 -128 286q0 125 68 220q68 94 240 200q-77 80 -118 162q-38 76 -38 178q0 156 134 260q131 104 352 104q208 0 340 -96t132 -248q0 -95 -56 -180q-60 -91 -244 -220l192 -212q117 113 176 176
l208 -200q-100 -103 -196 -180zM672 952l2 -6q152 92 152 178q0 51 -34 82q-33 30 -84 30q-58 0 -96 -32q-40 -34 -40 -88q0 -58 100 -164zM788 312v-4l-204 228q-136 -88 -136 -172q0 -54 32 -86t92 -32q106 0 216 64v2z" />
    <glyph glyph-name="quotesingle" unicode="'" horiz-adv-x="504" 
d="M412 1426v-2l-32 -552h-256l-32 552h320v2z" />
    <glyph glyph-name="parenleft" unicode="(" horiz-adv-x="660" 
d="M626 -318l2 -4l-230 -128q-328 472 -328 972t328 972l230 -128q-124 -187 -196 -416q-68 -216 -68 -424q0 -200 70 -428q70 -224 192 -418v2z" />
    <glyph glyph-name="parenright" unicode=")" horiz-adv-x="662" 
d="M262 1490v2q328 -472 328 -972t-328 -972l-232 128q128 198 196 420q70 228 70 426q0 208 -68 424q-71 226 -194 416z" />
    <glyph glyph-name="asterisk" unicode="*" horiz-adv-x="888" 
d="M778 1218l2 -2l-182 -108l182 -108l-94 -152l-158 104l4 -198h-176l4 198l-156 -104l-94 152l180 108l-184 106l88 154l160 -106v204h176l-4 -204l166 110l86 -156v2z" />
    <glyph glyph-name="plus" unicode="+" 
d="M1176 570v-2h-384v-384h-288v384h-384v288h384v384h288v-384h384v-288v2z" />
    <glyph glyph-name="comma" unicode="," horiz-adv-x="634" 
d="M244 -14l4 -4q-67 22 -104 74q-40 58 -40 122q0 84 64 148t148 64q89 0 148 -62q60 -63 60 -150q0 -173 -228 -494h-204q103 156 152 300v2z" />
    <glyph glyph-name="hyphen" unicode="-" horiz-adv-x="786" 
d="M708 374v-2h-628v320h628v-320v2z" />
    <glyph glyph-name="period" unicode="." horiz-adv-x="634" 
d="M316 390v-2q88 0 150 -62q62 -59 62 -146t-60 -150q-62 -62 -148 -62q-85 0 -148 60q-64 64 -64 148q0 88 62 150t146 62v2z" />
    <glyph glyph-name="slash" unicode="/" horiz-adv-x="950" 
d="M930 1378l2 -2l-696 -1432l-218 106l696 1434l216 -108v2z" />
    <glyph glyph-name="zero" unicode="0" 
d="M644 1464v2q272 0 428 -204t156 -552t-156 -552t-428 -204t-428 204t-156 552q0 346 156 550t428 204zM644 298v-2q192 0 192 416t-192 416q-188 0 -188 -416t188 -416v2z" />
    <glyph glyph-name="one" unicode="1" 
d="M912 2v-2h-396v1096h-312l144 328h564v-1424v2z" />
    <glyph glyph-name="two" unicode="2" 
d="M1206 -4l-4 4h-1152l528 640q143 175 176 228q40 68 40 114q0 63 -36 102q-35 38 -102 38q-169 0 -178 -240h-392q3 275 154 426q154 154 428 154q235 0 380 -130q144 -129 144 -344q0 -109 -56 -224q-58 -120 -352 -440h422v-330v2z" />
    <glyph glyph-name="three" unicode="3" 
d="M958 754l-2 -10q121 -41 190 -134q68 -92 68 -204q0 -208 -156 -328t-422 -120q-234 0 -400 124q-165 123 -180 352h360q15 -182 200 -182q86 0 144 46q56 47 56 124q0 174 -232 174h-170v274h170q101 0 152 42q52 46 52 120q0 70 -44 108q-46 40 -120 40
q-175 0 -184 -176h-356q9 228 162 348t394 120q234 0 388 -112q152 -110 152 -296q0 -219 -222 -312v2z" />
    <glyph glyph-name="four" unicode="4" 
d="M1260 556v-304h-152v-252h-388v252h-694v288l640 884h442v-868h152zM720 558v-2v422l-308 -422h308v2z" />
    <glyph glyph-name="five" unicode="5" 
d="M574 946l2 4q39 6 102 6q234 0 372 -132t138 -354q0 -227 -160 -372q-160 -142 -438 -142q-269 0 -546 196l192 282q183 -162 334 -162q99 0 160 58q60 57 60 146q0 100 -76 152t-192 52q-172 0 -328 -48l108 786h816v-316h-524l-20 -158v2z" />
    <glyph glyph-name="six" unicode="6" 
d="M628 940v2q75 36 176 36q177 0 306 -132q128 -131 128 -342q0 -163 -76 -288q-75 -122 -214 -192q-141 -66 -304 -66q-246 0 -416 146t-170 390q0 93 28 196q27 97 88 208q56 107 148 232l216 294h492l-208 -248q-165 -198 -194 -236zM646 294l2 2q80 0 138 52
q56 50 56 140q0 83 -54 140q-55 58 -142 58q-90 0 -140 -56q-52 -58 -52 -138q0 -98 56 -148q58 -52 136 -52v2z" />
    <glyph glyph-name="seven" unicode="7" 
d="M1280 1428v-4l-708 -1424h-456l556 1080h-568v346h1176v2z" />
    <glyph glyph-name="eight" unicode="8" 
d="M980 750v2q238 -121 238 -372q0 -128 -72 -224q-73 -97 -204 -148q-135 -52 -292 -52q-243 0 -408 114q-164 113 -164 308q0 253 236 372q-212 105 -212 316q0 186 160 292q157 104 386 104q237 0 390 -108q154 -109 154 -288q0 -211 -212 -316zM648 892h-4q66 0 110 38
t44 100q0 64 -44 102q-46 40 -110 40q-62 0 -108 -40t-46 -102q0 -61 48 -100q44 -38 110 -38zM640 262l4 -2q73 0 124 48q52 49 52 124t-50 122q-51 48 -128 48q-75 0 -126 -48q-52 -49 -52 -122q0 -75 52 -124q51 -48 124 -48v2z" />
    <glyph glyph-name="nine" unicode="9" 
d="M666 486v-2q-77 -34 -176 -34q-175 0 -304 132q-130 133 -130 342q0 246 172 394t422 148q248 0 418 -146q168 -144 168 -388q0 -93 -28 -196q-25 -93 -86 -208q-59 -111 -150 -232l-214 -294h-492l208 248q130 157 192 236zM644 736h4q90 0 140 56q52 58 52 140
q0 92 -56 142q-58 52 -140 52q-80 0 -138 -52q-56 -50 -56 -140q0 -85 54 -142q52 -58 140 -58v2z" />
    <glyph glyph-name="colon" unicode=":" horiz-adv-x="674" 
d="M336 1034v2q88 0 150 -62q62 -59 62 -146t-60 -150q-62 -62 -148 -62q-88 0 -150 62t-62 146q0 89 62 148q59 62 146 62zM548 176v2v2q0 -87 -60 -150q-62 -62 -148 -62q-87 0 -150 60q-62 62 -62 148q0 88 62 150q59 62 146 62q88 0 150 -62t62 -150z" />
    <glyph glyph-name="semicolon" unicode=";" horiz-adv-x="674" 
d="M336 1034v2q88 0 150 -62q62 -59 62 -146t-60 -150q-62 -62 -148 -62q-88 0 -150 62t-62 146q0 89 62 148q59 62 146 62zM264 -14l4 -4q-67 22 -104 74q-40 58 -40 122q0 88 62 150t150 62q89 0 148 -62q60 -63 60 -150q0 -173 -228 -494h-204q103 156 152 300v2z" />
    <glyph glyph-name="less" unicode="&#x3c;" 
d="M1184 164v-4l-1078 446v212l1078 448v-304l-620 -248l620 -248v-304v2z" />
    <glyph glyph-name="equal" unicode="=" 
d="M1176 1100v-288h-1056v288h1056zM1176 330v-2h-1056v286h1056v-286v2z" />
    <glyph glyph-name="greater" unicode="&#x3e;" 
d="M1186 604v2l-1076 -446v304l618 248l-618 248v304l1076 -448v-212z" />
    <glyph glyph-name="question" unicode="?" horiz-adv-x="1118" 
d="M56 974l4 -2q0 234 136 364q134 128 368 128q218 0 356 -114q138 -111 138 -308q0 -116 -54 -206q-58 -91 -160 -170q-109 -84 -132 -112q-27 -33 -30 -74h-330q0 196 152 312q140 112 166 142q34 40 34 96q0 57 -36 90q-36 36 -108 36q-79 0 -124 -48q-46 -49 -46 -134
h-334zM732 176v2v2q0 -87 -60 -150q-62 -62 -148 -62q-87 0 -150 60q-62 62 -62 148q0 88 62 150q59 62 146 62q88 0 150 -62t62 -150z" />
    <glyph glyph-name="at" unicode="@" horiz-adv-x="1980" 
d="M1682 -290l2 2q-303 -156 -636 -156q-425 0 -688 266q-264 267 -264 680q0 411 272 686q273 276 684 276q359 0 596 -228q236 -227 236 -578q0 -282 -136 -488q-135 -204 -376 -204q-153 0 -162 132q-68 -71 -146 -102q-75 -30 -192 -30q-177 0 -282 132
q-106 133 -106 324q0 227 144 404q143 176 356 176q186 0 278 -134l22 108h220q-122 -622 -128 -648q-12 -51 -12 -94q0 -64 44 -64q96 0 170 134q76 137 76 300q0 295 -168 466q-167 170 -466 170q-297 0 -492 -216q-194 -215 -194 -524q0 -333 198 -528q194 -194 540 -194
q268 0 508 132zM920 194v-2q128 0 200 108q70 110 70 284q0 86 -52 144q-53 56 -142 56q-118 0 -192 -104q-76 -106 -76 -236q0 -115 48 -184q47 -68 144 -68v2z" />
    <glyph glyph-name="A" unicode="A" horiz-adv-x="1586" 
d="M618 544h334l-170 428zM1562 2l2 -2h-398l-84 216h-592l-82 -216h-390l576 1424h376l592 -1424v2z" />
    <glyph glyph-name="B" unicode="B" horiz-adv-x="1354" 
d="M1000 776v2q132 -39 206 -134t74 -218q0 -426 -560 -426h-594v1424h586q496 0 496 -356q0 -87 -54 -168q-56 -79 -154 -124zM524 894l2 -2h128q75 0 114 36q40 37 40 96q0 39 -34 76q-36 36 -106 36h-144v-242zM528 296l-2 -4h132q212 0 212 144q0 174 -196 174h-146
v-316v2z" />
    <glyph glyph-name="C" unicode="C" horiz-adv-x="1372" 
d="M1284 56l-4 -8q-213 -90 -442 -90q-352 0 -568 216t-216 540q0 206 102 380q99 176 280 276q182 100 392 100q231 0 452 -94v-414q-209 124 -432 124q-164 0 -268 -104q-106 -106 -106 -266t104 -264q101 -104 282 -104q196 0 424 120v-414v2z" />
    <glyph glyph-name="D" unicode="D" horiz-adv-x="1484" 
d="M128 1422v2h502q373 0 586 -192q212 -188 212 -518q0 -327 -210 -522q-212 -194 -610 -194h-480v1424zM526 352v-4h80q205 0 306 92q100 94 100 280q0 173 -108 266q-108 96 -300 96h-78v-732v2z" />
    <glyph glyph-name="E" unicode="E" horiz-adv-x="1118" 
d="M1040 -2v2h-912v1424h892v-338h-494v-206h468v-332h-468v-212h514v-338z" />
    <glyph glyph-name="F" unicode="F" horiz-adv-x="1110" 
d="M1038 1090l2 -2h-514v-206h468v-332h-468v-548h-400v1424h912v-338v2z" />
    <glyph glyph-name="G" unicode="G" horiz-adv-x="1604" 
d="M1550 662l-4 -6q0 -330 -196 -514t-514 -184q-338 0 -558 214t-220 540q0 313 216 532q217 220 572 220q210 0 380 -82q167 -80 260 -222l-320 -216q-113 158 -318 158q-163 0 -268 -108q-104 -107 -104 -280q0 -188 106 -294q104 -104 274 -104q121 0 202 48t108 128
h-308v314h692v-146v2z" />
    <glyph glyph-name="H" unicode="H" horiz-adv-x="1568" 
d="M1440 2v-2h-400v544h-514v-544h-400v1424h400v-536h514v536h400v-1424v2z" />
    <glyph glyph-name="I" unicode="I" horiz-adv-x="654" 
d="M526 2v-2h-400v1424h400v-1424v2z" />
    <glyph glyph-name="J" unicode="J" horiz-adv-x="1092" 
d="M962 452l2 -8q0 -226 -124 -356q-122 -128 -348 -128q-315 0 -496 292l256 204q97 -160 188 -160q60 0 92 44t32 124v966h398v-980v2z" />
    <glyph glyph-name="K" unicode="K" horiz-adv-x="1522" 
d="M1498 2l2 -2h-524l-452 618v-618h-400v1424h400v-600l456 600h506l-564 -688l576 -736v2z" />
    <glyph glyph-name="L" unicode="L" horiz-adv-x="1102" 
d="M1042 2l-2 -2h-912v1424h400v-1060h514v-364v2z" />
    <glyph glyph-name="M" unicode="M" horiz-adv-x="1932" 
d="M1876 2l-6 -2h-380l-112 740l-282 -740h-252l-296 732l-100 -732h-384l208 1424h380l316 -796l304 796h384l220 -1424v2z" />
    <glyph glyph-name="N" unicode="N" horiz-adv-x="1606" 
d="M1482 4l-2 -4h-426q-369 556 -422 642q-59 95 -118 202v-842h-388v1424h428q245 -368 436 -660q52 -80 104 -180v840h388v-1424v2z" />
    <glyph glyph-name="O" unicode="O" horiz-adv-x="1672" 
d="M834 344q160 0 264 104t104 264q0 158 -104 262t-264 104q-154 0 -260 -106q-104 -104 -104 -260q0 -157 102 -262q103 -106 262 -106zM834 1464v2q331 0 556 -216q224 -215 224 -540q0 -328 -224 -540q-226 -214 -556 -214q-329 0 -554 216q-224 215 -224 538t224 538
q225 216 554 216z" />
    <glyph glyph-name="P" unicode="P" horiz-adv-x="1318" 
d="M128 1422v2h552q282 0 428 -134q148 -136 148 -354q0 -217 -152 -354q-153 -138 -392 -138h-184v-446h-400v1424zM530 770l-4 -2h144q85 0 136 48q50 50 50 122q0 77 -48 122q-50 44 -142 44h-136v-336v2z" />
    <glyph glyph-name="Q" unicode="Q" horiz-adv-x="1672" 
d="M1118 8h2q-135 -48 -286 -48q-329 0 -554 216q-224 215 -224 538t224 538q225 216 554 216q331 0 556 -216q224 -215 224 -540q0 -329 -234 -548l208 -248h-404zM1118 446l4 -2q78 84 78 268q0 158 -104 262t-264 104q-154 0 -260 -106q-104 -104 -104 -260
q0 -172 102 -280q99 -108 260 -108h20l-238 272h404l102 -152v2z" />
    <glyph glyph-name="R" unicode="R" horiz-adv-x="1370" 
d="M1342 2l-2 -2h-468l-312 480h-32v-480h-400v1424h582q268 0 408 -122q140 -119 140 -340q0 -316 -290 -424zM526 794v2h144q87 0 136 40q48 42 48 114q0 152 -192 152h-136v-308z" />
    <glyph glyph-name="S" unicode="S" horiz-adv-x="1228" 
d="M964 1024l-4 -4q-197 112 -330 112q-66 0 -100 -28q-36 -27 -36 -70q0 -45 44 -74q46 -31 188 -78q247 -84 346 -192q100 -109 100 -292q0 -195 -154 -316q-153 -120 -410 -120q-152 0 -302 56q-155 58 -274 156l232 284q188 -164 352 -164q158 0 158 92q0 53 -56 88
q-61 38 -228 100q-226 86 -308 196q-82 109 -82 252q0 192 152 320t388 128q259 0 500 -140l-176 -308v2z" />
    <glyph glyph-name="T" unicode="T" horiz-adv-x="1206" 
d="M1164 1082v-2h-362v-1080h-400v1080h-362v344h1124v-344v2z" />
    <glyph glyph-name="U" unicode="U" horiz-adv-x="1526" 
d="M1404 520l-4 -2q0 -256 -176 -408t-460 -152t-460 152t-176 408v908h400v-860q0 -112 64 -176t176 -64q110 0 174 64q62 62 62 176v860h400v-908v2z" />
    <glyph glyph-name="V" unicode="V" horiz-adv-x="1496" 
d="M1478 1426l-2 -2l-540 -1424h-372l-540 1424h416l318 -896l316 896h404v2z" />
    <glyph glyph-name="W" unicode="W" horiz-adv-x="2004" 
d="M1944 1424h8l-368 -1424h-408q-136 534 -152 612q-12 62 -24 152q-17 -140 -46 -248l-132 -516h-408l-368 1424h398q183 -854 186 -920q23 160 52 274l168 644h292l136 -522q48 -179 62 -262q5 -28 20 -134l36 210l150 708h398v2z" />
    <glyph glyph-name="X" unicode="X" horiz-adv-x="1556" 
d="M1506 2l-2 -2h-452l-276 422l-274 -422h-452l500 724l-480 702h460l248 -396l248 396h460l-480 -702l500 -724v2z" />
    <glyph glyph-name="Y" unicode="Y" horiz-adv-x="1474" 
d="M1454 1426l-2 -2l-516 -816v-608h-400v608l-516 816h444l272 -460l276 460h442v2z" />
    <glyph glyph-name="Z" unicode="Z" horiz-adv-x="1410" 
d="M1348 1426v-2l-632 -1080h580v-344h-1236l632 1080h-548v344h1204v2z" />
    <glyph glyph-name="bracketleft" unicode="[" horiz-adv-x="718" 
d="M696 -406v-4h-572v1836h572v-252h-268v-1328h268v-254v2z" />
    <glyph glyph-name="backslash" unicode="\" horiz-adv-x="950" 
d="M934 50l-2 -2l-216 -106l-696 1432l218 108l696 -1434v2z" />
    <glyph glyph-name="bracketright" unicode="]" horiz-adv-x="718" 
d="M594 -412v2h-574v254h268v1328h-268v252h574v-1836z" />
    <glyph glyph-name="asciicircum" unicode="^" horiz-adv-x="1262" 
d="M762 1438v-2l422 -770h-318l-236 416l-236 -416h-316l422 770h262v2z" />
    <glyph glyph-name="underscore" unicode="_" horiz-adv-x="1024" 
d="M1036 -254v-2h-1048v102h1048v-102v2z" />
    <glyph glyph-name="grave" unicode="`" horiz-adv-x="912" 
d="M610 1276h2l-140 -132l-350 272l184 174l304 -316v2z" />
    <glyph glyph-name="a" unicode="a" horiz-adv-x="1342" 
d="M1218 -2l2 2h-340v108q-131 -140 -336 -140q-224 0 -358 152q-136 154 -136 380q0 232 146 384t360 152q190 0 322 -144v112h340v-1006zM644 274v-2q100 0 160 66t60 170q0 100 -62 162q-64 64 -154 64q-100 0 -164 -64t-64 -168q0 -100 60 -166q61 -64 164 -64v2z" />
    <glyph glyph-name="b" unicode="b" horiz-adv-x="1342" 
d="M478 910l2 2q136 124 316 124q217 0 358 -156q138 -156 138 -384q0 -226 -134 -378t-356 -152q-207 0 -340 136v-106h-340v1466h356v-552zM704 272h-4q103 0 164 64q60 63 60 166q0 110 -60 170q-59 62 -164 62q-93 0 -154 -64q-62 -62 -62 -164q0 -110 62 -172
q64 -64 158 -64v2z" />
    <glyph glyph-name="c" unicode="c" horiz-adv-x="972" 
d="M892 36h8q-145 -68 -306 -68q-234 0 -388 148q-156 147 -156 380q0 232 158 384q160 154 386 154q164 0 302 -72v-324q-129 84 -254 84q-100 0 -164 -64t-64 -162t60 -158q61 -58 158 -58q123 0 260 82v-328v2z" />
    <glyph glyph-name="d" unicode="d" horiz-adv-x="1342" 
d="M1218 2l2 -2h-340v106q-139 -136 -338 -136q-222 0 -356 152q-136 154 -136 378q0 229 140 384q138 156 358 156q178 0 314 -124v552h356v-1466zM644 276l-4 -4q94 0 158 64q62 62 62 172q0 101 -60 164q-64 64 -156 64q-105 0 -164 -62q-60 -63 -60 -170q0 -103 60 -166
q61 -64 164 -64v2z" />
    <glyph glyph-name="e" unicode="e" horiz-adv-x="1238" 
d="M424 616h388q-15 85 -62 126q-48 42 -128 42q-84 0 -132 -42q-51 -42 -66 -126zM626 -34l6 2q-260 0 -420 148t-160 390q0 222 160 376q158 152 410 152q256 0 408 -152t152 -408v-68h-766q15 -81 70 -124q56 -44 140 -44q135 0 192 72l340 -94q-177 -252 -532 -252v2z
" />
    <glyph glyph-name="f" unicode="f" horiz-adv-x="788" 
d="M800 1180v-2q-63 18 -146 18q-106 0 -106 -124v-68h208v-314h-208v-692h-356v692h-148v314h148v86q0 201 104 308q105 108 288 108q116 0 216 -20v-308v2z" />
    <glyph glyph-name="g" unicode="g" horiz-adv-x="1324" 
d="M1202 44h-2q0 -235 -148 -362q-150 -126 -438 -126q-244 0 -388 96t-156 272h344q21 -104 200 -104q228 0 228 254v48q-139 -124 -314 -124q-213 0 -346 148q-132 147 -132 366q0 212 144 368q141 156 358 156q187 0 310 -144v112h340v-960zM632 302v2q89 0 148 62
q60 63 60 158q0 87 -58 148q-59 62 -148 62q-95 0 -156 -64q-60 -63 -60 -156q0 -85 60 -148q61 -64 154 -64z" />
    <glyph glyph-name="h" unicode="h" horiz-adv-x="1264" 
d="M1148 -2l4 2h-356v552q0 92 -24 134t-94 42q-88 0 -200 -124v-606h-356v1466h356v-564q156 132 312 132q172 0 266 -106q92 -104 92 -286v-644v2z" />
    <glyph glyph-name="i" unicode="i" horiz-adv-x="604" 
d="M300 1508q78 0 134 -56t56 -134t-56 -134t-134 -56t-134 56t-56 134t56 134t134 56zM480 2v-2h-356v1006h356v-1006v2z" />
    <glyph glyph-name="j" unicode="j" horiz-adv-x="604" 
d="M300 1508q78 0 134 -56t56 -134t-56 -134t-134 -56t-134 56t-56 134t56 134t134 56zM482 32h-2q0 -223 -124 -350q-123 -126 -360 -126h-52v316q99 0 140 44q42 45 42 156v934h356v-976v2z" />
    <glyph glyph-name="k" unicode="k" horiz-adv-x="1230" 
d="M1226 4l2 -4h-440l-308 442v-442h-356v1466h356v-832l304 372h412l-388 -448l418 -556v2z" />
    <glyph glyph-name="l" unicode="l" horiz-adv-x="602" 
d="M480 2v-2h-356v1466h356v-1466v2z" />
    <glyph glyph-name="m" unicode="m" horiz-adv-x="1866" 
d="M1754 0h-2h-356v552q0 106 -20 140q-20 38 -76 38q-78 0 -184 -124v-604h-356v552q0 102 -20 136q-20 38 -76 38q-41 0 -92 -36q-54 -38 -92 -88v-604h-356v1006h340v-120q145 148 310 148q221 0 296 -176q164 176 342 176q166 0 254 -106t88 -282v-648v2z" />
    <glyph glyph-name="n" unicode="n" horiz-adv-x="1264" 
d="M792 2l4 -2v552q0 92 -24 134t-94 42q-88 0 -200 -124v-606h-356v1006h340v-116q166 148 328 148q172 0 266 -106q92 -104 92 -286v-644h-356v2z" />
    <glyph glyph-name="o" unicode="o" horiz-adv-x="1274" 
d="M634 288l2 -4q90 0 154 64q62 62 62 158q0 93 -60 156q-64 64 -156 64q-90 0 -154 -64t-64 -154q0 -94 62 -156q64 -64 154 -64zM636 1034v2q259 0 424 -156q164 -152 164 -378q0 -225 -164 -380q-165 -156 -422 -156q-258 0 -424 154q-164 155 -164 382q0 220 162 376
q159 156 424 156z" />
    <glyph glyph-name="p" unicode="p" horiz-adv-x="1342" 
d="M466 896l-2 4q142 136 340 136q222 0 356 -152t134 -378q0 -228 -138 -384q-141 -156 -358 -156q-180 0 -316 124v-536h-356v1450h340v-108zM692 274l4 -2q105 0 164 62q60 63 60 172q0 101 -60 164q-61 64 -164 64q-94 0 -158 -64q-62 -62 -62 -170q0 -102 62 -164
q61 -64 154 -64v2z" />
    <glyph glyph-name="q" unicode="q" horiz-adv-x="1342" 
d="M1224 -440l-4 -4h-356v536q-136 -124 -314 -124q-220 0 -358 156q-140 155 -140 384q0 224 136 378q134 152 356 152q198 0 340 -136v108h340v-1450zM638 272h6q92 0 156 64q60 63 60 164q0 111 -64 172q-63 60 -158 60q-103 0 -164 -64q-60 -63 -60 -164q0 -109 60 -172
q59 -62 164 -62v2z" />
    <glyph glyph-name="r" unicode="r" horiz-adv-x="868" 
d="M852 1030v-4l-40 -336q-36 12 -84 12q-146 0 -250 -128v-572h-356v1006h340v-148h22q109 178 280 178q38 0 88 -10v2z" />
    <glyph glyph-name="s" unicode="s" horiz-adv-x="964" 
d="M784 700l-4 -6q-161 88 -284 88q-92 0 -92 -60q0 -40 40 -58q36 -14 110 -30q195 -39 284 -116q88 -76 88 -220q0 -148 -120 -238q-121 -88 -324 -88q-269 0 -446 120l148 246q156 -108 300 -108q100 0 100 66q0 59 -112 80q-204 36 -304 112t-100 220q0 139 112 236
q111 96 320 96q225 0 404 -88l-120 -254v2z" />
    <glyph glyph-name="t" unicode="t" horiz-adv-x="730" 
d="M700 694v-2h-160v-692h-356v692h-152v314h152v316h356v-316h160v-314v2z" />
    <glyph glyph-name="u" unicode="u" horiz-adv-x="1226" 
d="M1118 414v-4q0 -205 -134 -324q-136 -118 -374 -118q-235 0 -370 120q-134 119 -134 324v596h356v-536q0 -196 148 -196q152 0 152 196v536h356v-596v2z" />
    <glyph glyph-name="v" unicode="v" horiz-adv-x="1226" 
d="M1202 1008l2 -2l-424 -1006h-336l-424 1006h372l224 -600l228 600h358v2z" />
    <glyph glyph-name="w" unicode="w" horiz-adv-x="1700" 
d="M1688 1008v-2l-410 -1006h-276l-148 440l-158 -440h-274l-408 1006h360l188 -500l174 500h228l174 -500l190 500h360v2z" />
    <glyph glyph-name="x" unicode="x" horiz-adv-x="1272" 
d="M1240 2v-2h-424l-184 270l-188 -270h-412l396 502l-392 504h426l180 -264l184 264h414l-396 -496l396 -510v2z" />
    <glyph glyph-name="y" unicode="y" horiz-adv-x="1212" 
d="M1204 1008v-2l-616 -1450h-356l200 464l-414 986h372l228 -596l226 596h360v2z" />
    <glyph glyph-name="z" unicode="z" horiz-adv-x="1058" 
d="M1022 1010l-2 -4l-460 -740h426v-266h-960l462 740h-400v268h934v2z" />
    <glyph glyph-name="braceleft" unicode="{" horiz-adv-x="688" 
d="M630 -420l-2 10h-132q-129 0 -212 86q-84 87 -84 214v302q0 101 -32 148q-31 48 -108 82v168q76 33 108 80q32 49 32 150v300q0 130 84 214q83 86 212 86h132v-240h-68q-33 0 -44 -20q-12 -21 -12 -74v-272q0 -120 -36 -192q-36 -73 -124 -124q89 -51 126 -124
q36 -72 36 -190v-272q0 -53 12 -74q11 -20 44 -20h68v-240v2z" />
    <glyph glyph-name="bar" unicode="|" horiz-adv-x="662" 
d="M476 -510v-2h-292v2048h292v-2048v2z" />
    <glyph glyph-name="braceright" unicode="}" horiz-adv-x="688" 
d="M632 430l-4 -6q-77 -34 -108 -82q-32 -47 -32 -148v-302q0 -143 -80 -226q-81 -84 -214 -84h-134v240h68q30 0 44 14q12 15 12 56v302q0 231 162 312q-84 42 -120 114q-38 70 -38 204v292q0 39 -12 54q-16 16 -44 16h-68v240h134q133 0 214 -84q80 -83 80 -224v-292
q0 -101 32 -150q32 -47 108 -80v-168v2z" />
    <glyph glyph-name="asciitilde" unicode="~" horiz-adv-x="1262" 
d="M1192 664l4 -2q-109 -103 -180 -140q-69 -36 -138 -36q-72 0 -132 24q-69 26 -180 86q-125 64 -188 64q-122 0 -314 -192v300q94 92 176 134q77 40 156 40q64 0 118 -20q50 -18 178 -84q127 -68 196 -68q65 0 132 44q69 45 172 148v-300v2z" />
    <glyph glyph-name="exclamdown" unicode="&#xa1;" horiz-adv-x="658" 
d="M512 -444h2h-372l16 972h338zM328 1038v-2q88 0 150 -62q62 -59 62 -146t-60 -150q-62 -62 -148 -62q-88 0 -150 62t-62 146q0 88 62 150q59 62 146 62v2z" />
    <glyph glyph-name="cent" unicode="&#xa2;" 
d="M1052 252l4 -4q-99 -45 -204 -60v-188h-274v196q-197 49 -308 186q-112 142 -112 328q0 184 112 326q111 141 304 192v198h274v-186q118 -22 204 -64v-324q-138 84 -270 84q-117 0 -188 -62q-72 -63 -72 -162q0 -102 68 -158t188 -56q135 0 274 80v-328v2z" />
    <glyph glyph-name="sterling" unicode="&#xa3;" 
d="M1290 318v2q-48 -186 -136 -268q-91 -82 -254 -82q-96 0 -264 62q-150 52 -218 52q-107 0 -140 -120l-272 44q57 303 284 372q2 10 2 56q0 70 -48 178h-228v236h150q-28 93 -28 162q0 208 138 328q134 122 398 122q223 0 370 -114q144 -111 144 -316h-350q0 63 -40 100
q-39 36 -112 36q-152 0 -152 -158q0 -75 26 -162h326v-236h-262q24 -87 24 -174q0 -45 -6 -72q36 -9 120 -36q99 -36 128 -36q60 0 84 100l316 -78v2z" />
    <glyph glyph-name="currency" unicode="&#xa4;" horiz-adv-x="1212" 
d="M1180 294l-4 -2l-148 -148l-200 196q-99 -60 -222 -60q-117 0 -216 60l-204 -200l-148 148l200 204q-62 100 -62 218q0 124 60 220l-196 200l148 148l200 -196q105 66 220 66q121 0 222 -64l200 196l148 -148l-192 -196q64 -104 64 -222q0 -112 -66 -220zM606 500v2
q92 0 152 60t60 148q0 93 -60 156q-61 64 -152 64q-86 0 -144 -64q-60 -63 -60 -156q0 -87 60 -150q60 -60 144 -60z" />
    <glyph glyph-name="yen" unicode="&#xa5;" 
d="M1294 1426l-2 -2l-320 -588h208v-232h-332v-136h332v-232h-332v-238h-400v238h-328v232h328v136h-328v232h204l-322 588h436l212 -480l212 480h432v2z" />
    <glyph glyph-name="brokenbar" unicode="&#xa6;" horiz-adv-x="662" 
d="M476 1382v-716h-292v716h292zM476 -356v-2h-292v716h292v-716v2z" />
    <glyph glyph-name="section" unicode="&#xa7;" horiz-adv-x="1240" 
d="M782 1030l-8 4q-3 79 -48 124q-44 44 -108 44q-54 0 -80 -26q-28 -25 -28 -68q0 -60 70 -100l308 -168q135 -74 196 -158q62 -83 62 -216q0 -144 -124 -268q92 -98 92 -226q0 -195 -138 -306q-141 -108 -360 -108q-484 0 -502 480h336q9 -192 164 -192q51 0 84 30
q32 29 32 74t-24 72q-23 29 -118 78l-256 136q-77 40 -128 94q-47 50 -72 116q-24 63 -24 136q0 157 132 292q-43 49 -64 92q-24 48 -24 124q0 175 132 274q131 98 348 98t348 -110q130 -112 142 -322h-340zM778 354l2 -2q36 45 36 88q0 39 -24 72q-28 38 -78 64l-258 146
q-40 -49 -40 -92q0 -83 72 -122l290 -156v2z" />
    <glyph glyph-name="dieresis" unicode="&#xa8;" horiz-adv-x="912" 
d="M694 1498l-2 -2q74 0 126 -52t52 -124q0 -71 -52 -126q-52 -52 -126 -52q-72 0 -124 52t-52 126t52 126t126 52zM218 1500l-2 -4q74 0 126 -52t52 -124q0 -74 -52 -126t-126 -52q-72 0 -124 52t-52 126t52 126t126 52v2z" />
    <glyph glyph-name="copyright" unicode="&#xa9;" horiz-adv-x="1672" 
d="M836 1456q302 0 522 -220q218 -218 218 -524q0 -308 -218 -526q-220 -220 -522 -220q-304 0 -524 220q-218 218 -218 526q0 306 218 524q220 220 524 220zM840 146l-2 2q241 0 398 160q154 160 154 408q0 249 -152 404q-153 156 -398 156q-244 0 -400 -156t-156 -404
t156 -410q157 -160 400 -160zM1092 370l8 -6q-118 -56 -248 -56q-178 0 -288 116q-112 118 -112 288q0 165 116 284q117 120 280 120q127 0 248 -56v-216q-119 86 -248 86q-88 0 -140 -58t-52 -156q0 -100 52 -158q50 -56 148 -56q105 0 236 76v-210v2z" />
    <glyph glyph-name="ordfeminine" unicode="&#xaa;" horiz-adv-x="808" 
d="M726 844l-2 -2h-196v72q-72 -84 -182 -84q-135 0 -220 88q-84 87 -84 224q0 131 90 224q86 92 230 92q100 0 168 -74v62h196v-602zM386 1008l-2 -2q57 0 96 36q38 38 38 102q0 57 -36 96q-40 40 -94 40q-58 0 -98 -40t-40 -98q0 -59 36 -98q35 -38 100 -38v2z" />
    <glyph glyph-name="guillemotleft" unicode="&#xab;" horiz-adv-x="1114" 
d="M844 548l220 -324l-212 -140l-312 464l312 460l212 -140zM578 226v-2l-212 -140l-314 464l314 460l212 -140l-222 -320l222 -324v2z" />
    <glyph glyph-name="logicalnot" unicode="&#xac;" 
d="M1174 332l2 -4h-288v484h-770v288h1056v-770v2z" />
    <glyph glyph-name="uni00AD" unicode="&#xad;" horiz-adv-x="786" 
d="M708 374v-2h-628v320h628v-320v2z" />
    <glyph glyph-name="registered" unicode="&#xae;" horiz-adv-x="1672" 
d="M836 1456q302 0 522 -220q218 -218 218 -524q0 -308 -218 -526q-220 -220 -522 -220q-304 0 -524 220q-218 218 -218 526q0 306 218 524q220 220 524 220zM840 146l-2 2q241 0 398 160q154 160 154 408q0 249 -152 404q-153 156 -398 156q-244 0 -400 -156t-156 -404
t156 -410q157 -160 400 -160zM1216 320l-6 2h-240l-212 274v-274h-192v782h276q304 0 304 -244q0 -83 -52 -144q-50 -59 -144 -80zM756 760v-2h56q128 0 128 102q0 90 -124 90h-60v-192v2z" />
    <glyph glyph-name="macron" unicode="&#xaf;" horiz-adv-x="1024" 
d="M1036 1526v-2h-1048v102h1048v-102v2z" />
    <glyph glyph-name="degree" unicode="&#xb0;" horiz-adv-x="902" 
d="M452 1466q146 0 252 -106t106 -252q0 -148 -106 -254q-104 -104 -252 -104q-150 0 -254 104q-106 106 -106 254q0 146 106 252t254 106zM452 958v-2q60 0 104 44t44 104q0 64 -44 108q-46 46 -104 46q-59 0 -104 -48q-46 -46 -46 -106t44 -104t106 -44v2z" />
    <glyph glyph-name="plusminus" unicode="&#xb1;" 
d="M1176 1040v-286h-384v-384h-288v384h-384v286h384v384h288v-384h384zM1176 2v-2h-1056v288h1056v-288v2z" />
    <glyph glyph-name="twosuperior" unicode="&#xb2;" horiz-adv-x="864" 
d="M782 592l2 2h-714q379 444 414 488q44 56 44 100q0 32 -24 56t-64 24q-105 0 -108 -146h-244q0 161 96 254q95 92 268 92q147 0 236 -74q88 -76 88 -198q0 -54 -28 -116q-24 -53 -80 -116l-160 -172h274v-196v2z" />
    <glyph glyph-name="threesuperior" unicode="&#xb3;" horiz-adv-x="864" 
d="M640 1042v-2q154 -45 154 -200q0 -119 -100 -192q-99 -72 -260 -72q-148 0 -250 72q-101 71 -110 208h224q12 -102 126 -102q48 0 80 26t32 72q0 98 -134 98h-64v166h64q112 0 112 92q0 39 -28 64q-27 24 -68 24q-46 0 -80 -28q-31 -25 -34 -80h-220q3 135 104 208
q99 72 246 72q150 0 248 -64q94 -64 94 -172q0 -147 -136 -192v2z" />
    <glyph glyph-name="acute" unicode="&#xb4;" horiz-adv-x="912" 
d="M768 1420l2 -4l-350 -272l-140 132l304 316l184 -174v2z" />
    <glyph glyph-name="mu" unicode="&#xb5;" horiz-adv-x="1226" 
d="M1120 412l-2 -2q0 -205 -134 -324q-136 -118 -374 -118q-63 0 -146 16v-428h-356v1450h356v-536q0 -196 148 -196q152 0 152 196v536h356v-596v2z" />
    <glyph glyph-name="paragraph" unicode="&#xb6;" horiz-adv-x="1284" 
d="M1238 1184l6 -6h-124v-1622h-236v1622h-160v-1622h-236v976q-213 21 -322 136q-112 118 -112 312q0 138 56 238q57 104 164 158q108 54 264 54h700v-248v2z" />
    <glyph glyph-name="periodcentered" unicode="&#xb7;" horiz-adv-x="634" 
d="M316 928v-4q88 0 150 -62q62 -59 62 -146t-60 -150q-60 -60 -148 -60q-85 0 -148 60q-64 64 -64 148q0 88 62 150q59 62 146 62v2z" />
    <glyph glyph-name="cedilla" unicode="&#xb8;" horiz-adv-x="912" 
d="M514 -80h4q152 -24 152 -168q0 -98 -86 -148q-89 -52 -248 -52q-75 0 -156 14l24 144q64 -8 108 -8q89 0 120 14q32 15 32 46q0 40 -82 40q-31 0 -76 -6l64 220h172l-28 -98v2z" />
    <glyph glyph-name="onesuperior" unicode="&#xb9;" horiz-adv-x="864" 
d="M604 590v-2h-258v656h-204l96 200h366v-856v2z" />
    <glyph glyph-name="ordmasculine" unicode="&#xba;" horiz-adv-x="750" 
d="M374 1456h2q149 0 242 -90q92 -86 92 -222q0 -135 -92 -224q-93 -90 -242 -90q-147 0 -240 90q-94 91 -94 224t92 222q93 90 240 90zM374 1016l2 -2q52 0 90 38q36 39 36 92t-36 92q-40 40 -90 40q-51 0 -88 -40q-38 -38 -38 -92q0 -53 36 -92q35 -38 88 -38v2z" />
    <glyph glyph-name="guillemotright" unicode="&#xbb;" horiz-adv-x="1114" 
d="M272 550l-220 320l212 140l314 -460l-314 -464l-212 140zM536 872v-2l212 140l312 -460l-312 -464l-212 140l220 324l-220 320v2z" />
    <glyph glyph-name="onequarter" unicode="&#xbc;" horiz-adv-x="1892" 
d="M512 1444v-856h-258v656h-204l96 200h366zM1350 1370h2l-792 -1412l-188 108l790 1416zM1774 150l2 2h-94v-152h-240v152h-430v172l392 532h276v-532h94v-174zM1440 326v-2v284l-212 -284h212v2z" />
    <glyph glyph-name="onehalf" unicode="&#xbd;" horiz-adv-x="1892" 
d="M510 1444v-856h-258v656h-204l96 200h366zM1350 1370h2l-792 -1412l-188 108l790 1416zM1822 -2l2 2h-714q379 444 414 488q44 56 44 100q0 32 -24 56t-64 24q-105 0 -108 -146h-244q0 161 96 254q95 92 268 92q147 0 236 -74q88 -76 88 -198q0 -54 -28 -116
q-24 -53 -80 -116l-160 -172h274v-196v2z" />
    <glyph glyph-name="threequarters" unicode="&#xbe;" horiz-adv-x="1892" 
d="M600 1040q154 -45 154 -200q0 -119 -100 -192q-99 -72 -260 -72q-148 0 -250 72q-101 71 -110 208h224q12 -102 126 -102q48 0 80 26t32 72q0 98 -134 98h-64v166h64q112 0 112 92q0 39 -28 64q-27 24 -68 24q-46 0 -80 -28q-31 -25 -34 -80h-220q3 135 104 208
q99 72 246 72q150 0 248 -64q94 -64 94 -172q0 -147 -136 -192zM1494 1370h2l-792 -1412l-188 108l790 1416zM1856 150l2 2h-94v-152h-240v152h-430v172l392 532h276v-532h94v-174zM1524 326v-2v284l-212 -284h212v2z" />
    <glyph glyph-name="questiondown" unicode="&#xbf;" horiz-adv-x="1118" 
d="M1056 60v-8q0 -234 -136 -364q-134 -128 -368 -128q-222 0 -356 110q-136 112 -136 306q0 92 54 164q47 69 158 180q107 95 132 128q28 37 28 84h330q0 -81 -20 -138q-22 -62 -54 -100q-36 -42 -118 -104q-104 -80 -130 -112q-28 -34 -28 -84q0 -116 140 -116
q81 0 126 48q44 47 44 134h334zM596 1038v-2q88 0 150 -62q62 -59 62 -146t-60 -150q-62 -62 -148 -62q-88 0 -150 62t-62 146q0 88 62 150q59 62 146 62v2z" />
    <glyph glyph-name="Agrave" unicode="&#xc0;" horiz-adv-x="1586" 
d="M618 544h334l-170 428zM1562 0h2h-398l-84 216h-592l-82 -216h-390l576 1424h376zM986 1676h2l-140 -132l-350 272l184 174l304 -316v2z" />
    <glyph glyph-name="Aacute" unicode="&#xc1;" horiz-adv-x="1586" 
d="M618 544h334l-170 428zM1562 0h2h-398l-84 216h-592l-82 -216h-390l576 1424h376zM1074 1820l2 -4l-350 -272l-140 132l304 316l184 -174v2z" />
    <glyph glyph-name="Acircumflex" unicode="&#xc2;" horiz-adv-x="1586" 
d="M618 544h334l-170 428zM1562 0h2h-398l-84 216h-592l-82 -216h-390l576 1424h376zM1126 1694v-2l-136 -148l-208 184l-208 -184l-136 148l344 296l344 -296v2z" />
    <glyph glyph-name="Atilde" unicode="&#xc3;" horiz-adv-x="1586" 
d="M618 544h334l-170 428zM1562 0h2h-398l-84 216h-592l-82 -216h-390l576 1424h376zM1116 1816l-4 -4q-21 -268 -208 -268q-59 0 -148 40q-51 24 -76 24q-50 0 -62 -64h-170q21 268 208 268q59 0 148 -40q54 -24 78 -24q52 0 64 66h170v2z" />
    <glyph glyph-name="Adieresis" unicode="&#xc4;" horiz-adv-x="1586" 
d="M618 544h334l-170 428zM1562 0h2h-398l-84 216h-592l-82 -216h-390l576 1424h376zM1026 1904l-2 -2q74 0 126 -52t52 -124q0 -71 -52 -126q-52 -52 -126 -52q-72 0 -124 52t-52 126t52 126t126 52zM550 1906l-2 -4q74 0 126 -52t52 -124q0 -74 -52 -126t-126 -52
q-72 0 -124 52t-52 126t52 126t126 52v2z" />
    <glyph glyph-name="Aring" unicode="&#xc5;" horiz-adv-x="1586" 
d="M1562 0h2h-398l-84 216h-592l-82 -216h-390l560 1386q-72 81 -72 188q0 116 80 196t196 80t196 -80t80 -196q0 -107 -72 -188zM784 1466q44 0 76 32t32 76q0 45 -32 74q-32 32 -76 32q-42 0 -74 -32q-32 -29 -32 -74q0 -44 32 -76t74 -32zM952 546v-2l-170 428l-164 -428
h334v2z" />
    <glyph glyph-name="AE" unicode="&#xc6;" horiz-adv-x="2034" 
d="M2012 -2v2h-846l-84 216h-592l-82 -216h-390l576 1424h816l144 -338h-442l86 -206h406l140 -332h-408l88 -212h444zM952 546v-2l-170 430l-164 -430h334v2z" />
    <glyph glyph-name="Ccedilla" unicode="&#xc7;" horiz-adv-x="1372" 
d="M1286 52l-6 -4q-213 -90 -442 -90h-2l-12 -40q152 -24 152 -168q0 -100 -90 -148t-242 -48q-74 0 -158 14l24 144q64 -8 110 -8q89 0 120 14q32 15 32 46q0 40 -82 40q-31 0 -76 -6l52 174q-289 54 -448 258q-162 204 -162 480q0 206 102 380q99 176 280 276
q182 100 392 100q231 0 452 -94v-414q-209 124 -432 124q-164 0 -268 -104q-106 -106 -106 -266t104 -264q101 -104 282 -104q196 0 424 120v-414v2z" />
    <glyph glyph-name="Egrave" unicode="&#xc8;" horiz-adv-x="1118" 
d="M1040 -2v2h-912v1424h892v-338h-494v-206h468v-332h-468v-212h514v-338zM780 1676h2l-140 -132l-350 272l184 174l304 -316v2z" />
    <glyph glyph-name="Eacute" unicode="&#xc9;" horiz-adv-x="1118" 
d="M1040 -2v2h-912v1424h892v-338h-494v-206h468v-332h-468v-212h514v-338zM886 1820l2 -4l-350 -272l-140 132l304 316l184 -174v2z" />
    <glyph glyph-name="Ecircumflex" unicode="&#xca;" horiz-adv-x="1118" 
d="M1040 -2v2h-912v1424h892v-338h-494v-206h468v-332h-468v-212h514v-338zM926 1694v-2l-136 -148l-208 184l-208 -184l-136 148l344 296l344 -296v2z" />
    <glyph glyph-name="Edieresis" unicode="&#xcb;" horiz-adv-x="1118" 
d="M1040 -2v2h-912v1424h892v-338h-494v-206h468v-332h-468v-212h514v-338zM818 1904l-2 -2q74 0 126 -52t52 -124q0 -71 -52 -126q-52 -52 -126 -52q-72 0 -124 52t-52 126t52 126t126 52zM344 1906l-2 -4q74 0 126 -52t52 -124q0 -74 -52 -126t-126 -52q-72 0 -124 52
t-52 126t52 126t126 52v2z" />
    <glyph glyph-name="Igrave" unicode="&#xcc;" horiz-adv-x="654" 
d="M526 1424v-1424h-400v1424h400zM542 1676h2l-140 -132l-350 272l184 174l304 -316v2z" />
    <glyph glyph-name="Iacute" unicode="&#xcd;" horiz-adv-x="654" 
d="M526 1424v-1424h-400v1424h400zM604 1820l2 -4l-350 -272l-140 132l304 316l184 -174v2z" />
    <glyph glyph-name="Icircumflex" unicode="&#xce;" horiz-adv-x="654" 
d="M526 1424v-1424h-400v1424h400zM672 1694v-2l-136 -148l-208 184l-208 -184l-136 148l344 296l344 -296v2z" />
    <glyph glyph-name="Idieresis" unicode="&#xcf;" horiz-adv-x="654" 
d="M526 1424v-1424h-400v1424h400zM562 1904l-2 -2q74 0 126 -52t52 -124q0 -71 -52 -126q-52 -52 -126 -52q-72 0 -124 52t-52 126t52 126t126 52zM88 1906l-2 -4q74 0 126 -52t52 -124q0 -74 -52 -126t-126 -52q-72 0 -124 52t-52 126t52 126t126 52v2z" />
    <glyph glyph-name="Eth" unicode="&#xd0;" horiz-adv-x="1484" 
d="M128 1426v-2h502q373 0 586 -192q212 -188 212 -518q0 -327 -210 -522q-212 -194 -610 -194h-480v556h-128v312h128v560zM526 346v2h80q406 0 406 372q0 173 -108 266q-108 96 -300 96h-78v-216h200v-312h-200v-208z" />
    <glyph glyph-name="Ntilde" unicode="&#xd1;" horiz-adv-x="1606" 
d="M1482 2l-2 -2h-426q-369 556 -422 642q-59 95 -118 202v-842h-388v1424h428q245 -368 436 -660q52 -80 104 -180v840h388v-1424zM1144 1816l-4 -4q-21 -268 -208 -268q-59 0 -148 40q-51 24 -76 24q-50 0 -62 -64h-170q21 268 208 268q59 0 148 -40q54 -24 78 -24
q52 0 64 66h170v2z" />
    <glyph glyph-name="Ograve" unicode="&#xd2;" horiz-adv-x="1672" 
d="M834 344q160 0 264 104t104 264q0 158 -104 262t-264 104q-154 0 -260 -106q-104 -104 -104 -260q0 -157 102 -262q103 -106 262 -106zM834 1464v2q331 0 556 -216q224 -215 224 -540q0 -328 -224 -540q-226 -214 -556 -214q-329 0 -554 216q-224 215 -224 538t224 538
q225 216 554 216zM990 1676h2l-140 -132l-350 272l184 174l304 -316v2z" />
    <glyph glyph-name="Oacute" unicode="&#xd3;" horiz-adv-x="1672" 
d="M834 344q160 0 264 104t104 264q0 158 -104 262t-264 104q-154 0 -260 -106q-104 -104 -104 -260q0 -157 102 -262q103 -106 262 -106zM834 1464v2q331 0 556 -216q224 -215 224 -540q0 -328 -224 -540q-226 -214 -556 -214q-329 0 -554 216q-224 215 -224 538t224 538
q225 216 554 216zM1116 1820l2 -4l-350 -272l-140 132l304 316l184 -174v2z" />
    <glyph glyph-name="Ocircumflex" unicode="&#xd4;" horiz-adv-x="1672" 
d="M834 344q160 0 264 104t104 264q0 158 -104 262t-264 104q-154 0 -260 -106q-104 -104 -104 -260q0 -157 102 -262q103 -106 262 -106zM834 1464v2q331 0 556 -216q224 -215 224 -540q0 -328 -224 -540q-226 -214 -556 -214q-329 0 -554 216q-224 215 -224 538t224 538
q225 216 554 216zM1176 1694v-2l-136 -148l-208 184l-208 -184l-136 148l344 296l344 -296v2z" />
    <glyph glyph-name="Otilde" unicode="&#xd5;" horiz-adv-x="1672" 
d="M834 344q160 0 264 104t104 264q0 158 -104 262t-264 104q-154 0 -260 -106q-104 -104 -104 -260q0 -157 102 -262q103 -106 262 -106zM834 1464v2q331 0 556 -216q224 -215 224 -540q0 -328 -224 -540q-226 -214 -556 -214q-329 0 -554 216q-224 215 -224 538t224 538
q225 216 554 216zM1156 1816l-4 -4q-21 -268 -208 -268q-59 0 -148 40q-51 24 -76 24q-50 0 -62 -64h-170q21 268 208 268q59 0 148 -40q54 -24 78 -24q52 0 64 66h170v2z" />
    <glyph glyph-name="Odieresis" unicode="&#xd6;" horiz-adv-x="1672" 
d="M834 344q160 0 264 104t104 264q0 158 -104 262t-264 104q-154 0 -260 -106q-104 -104 -104 -260q0 -157 102 -262q103 -106 262 -106zM834 1464v2q331 0 556 -216q224 -215 224 -540q0 -328 -224 -540q-226 -214 -556 -214q-329 0 -554 216q-224 215 -224 538t224 538
q225 216 554 216zM1074 1904l-2 -2q74 0 126 -52t52 -124q0 -71 -52 -126q-52 -52 -126 -52q-72 0 -124 52t-52 126t52 126t126 52zM600 1906l-2 -4q74 0 126 -52t52 -124q0 -74 -52 -126t-126 -52q-72 0 -124 52t-52 126t52 126t126 52v2z" />
    <glyph glyph-name="multiply" unicode="&#xd7;" 
d="M1166 390l2 -2l-202 -204l-322 324l-320 -324l-204 204l320 324l-320 324l204 204l320 -324l324 324l202 -204l-324 -324l320 -324v2z" />
    <glyph glyph-name="Oslash" unicode="&#xd8;" horiz-adv-x="1672" 
d="M1604 1346h-4l-152 -154q168 -201 168 -478q0 -328 -224 -540q-226 -214 -556 -214q-269 0 -474 148l-188 -188l-132 150l176 176q-158 203 -158 468q0 323 224 538q225 216 554 216q261 0 464 -140l162 162zM1018 1050v-2q-85 44 -184 44q-159 0 -264 -108
q-106 -109 -106 -268q0 -96 40 -182zM642 390l-2 -2q89 -52 194 -52q163 0 268 108q106 109 106 270q0 108 -48 192l-518 -518v2z" />
    <glyph glyph-name="Ugrave" unicode="&#xd9;" horiz-adv-x="1526" 
d="M1404 518h-4q0 -256 -176 -408t-460 -152t-460 152t-176 408v908h400v-860q0 -112 64 -176t176 -64q110 0 174 64q62 62 62 176v860h400v-908zM910 1676h2l-140 -132l-350 272l184 174l304 -316v2z" />
    <glyph glyph-name="Uacute" unicode="&#xda;" horiz-adv-x="1526" 
d="M1404 518h-4q0 -256 -176 -408t-460 -152t-460 152t-176 408v908h400v-860q0 -112 64 -176t176 -64q110 0 174 64q62 62 62 176v860h400v-908zM1102 1820l2 -4l-350 -272l-140 132l304 316l184 -174v2z" />
    <glyph glyph-name="Ucircumflex" unicode="&#xdb;" horiz-adv-x="1526" 
d="M1404 518h-4q0 -256 -176 -408t-460 -152t-460 152t-176 408v908h400v-860q0 -112 64 -176t176 -64q110 0 174 64q62 62 62 176v860h400v-908zM1110 1694v-2l-136 -148l-208 184l-208 -184l-136 148l344 296l344 -296v2z" />
    <glyph glyph-name="Udieresis" unicode="&#xdc;" horiz-adv-x="1526" 
d="M1404 518h-4q0 -256 -176 -408t-460 -152t-460 152t-176 408v908h400v-860q0 -112 64 -176t176 -64q110 0 174 64q62 62 62 176v860h400v-908zM1002 1904l-2 -2q74 0 126 -52t52 -124q0 -71 -52 -126q-52 -52 -126 -52q-72 0 -124 52t-52 126t52 126t126 52zM526 1906
l-2 -4q74 0 126 -52t52 -124q0 -74 -52 -126t-126 -52q-72 0 -124 52t-52 126t52 126t126 52v2z" />
    <glyph glyph-name="Yacute" unicode="&#xdd;" horiz-adv-x="1474" 
d="M1454 1424h-2l-516 -816v-608h-400v608l-516 816h444l272 -460l276 460h442zM1004 1820l2 -4l-350 -272l-140 132l304 316l184 -174v2z" />
    <glyph glyph-name="Thorn" unicode="&#xde;" horiz-adv-x="1318" 
d="M526 1426v-202h154q282 0 428 -134q148 -136 148 -354q0 -220 -152 -354q-154 -136 -394 -136h-184v-244h-400v1424h400zM530 566l-4 -2h144q85 0 136 48q50 50 50 122q0 77 -48 122q-50 44 -142 44h-136v-336v2z" />
    <glyph glyph-name="germandbls" unicode="&#xdf;" 
d="M978 794l6 -2q118 -44 188 -142q68 -92 68 -216q0 -227 -148 -348q-147 -120 -408 -120h-108v314h76q232 0 232 182q0 73 -56 120q-56 50 -148 50h-60v272h60q50 0 84 40q32 41 32 96q0 60 -40 100t-108 40q-78 0 -124 -58t-46 -164v-958h-356v958q0 241 146 372
q143 134 384 134q210 0 352 -106q140 -104 140 -278q0 -194 -166 -288v2z" />
    <glyph glyph-name="agrave" unicode="&#xe0;" horiz-adv-x="1342" 
d="M1218 -2l2 2h-340v108q-131 -140 -336 -140q-224 0 -358 152q-136 154 -136 380q0 232 146 384t360 152q190 0 322 -144v112h340v-1006zM644 272q100 0 160 66t60 170q0 100 -62 162q-64 64 -154 64q-100 0 -164 -64t-64 -168q0 -100 60 -166q61 -64 164 -64zM856 1276h2
l-140 -132l-350 272l184 174l304 -316v2z" />
    <glyph glyph-name="aacute" unicode="&#xe1;" horiz-adv-x="1342" 
d="M1218 -2l2 2h-340v108q-131 -140 -336 -140q-224 0 -358 152q-136 154 -136 380q0 232 146 384t360 152q190 0 322 -144v112h340v-1006zM644 272q100 0 160 66t60 170q0 100 -62 162q-64 64 -154 64q-100 0 -164 -64t-64 -168q0 -100 60 -166q61 -64 164 -64zM974 1420
l2 -4l-350 -272l-140 132l304 316l184 -174v2z" />
    <glyph glyph-name="acircumflex" unicode="&#xe2;" horiz-adv-x="1342" 
d="M1218 -2l2 2h-340v108q-131 -140 -336 -140q-224 0 -358 152q-136 154 -136 380q0 232 146 384t360 152q190 0 322 -144v112h340v-1006zM644 272q100 0 160 66t60 170q0 100 -62 162q-64 64 -154 64q-100 0 -164 -64t-64 -168q0 -100 60 -166q61 -64 164 -64zM1008 1296
v-2l-136 -148l-208 184l-208 -184l-136 148l344 296l344 -296v2z" />
    <glyph glyph-name="atilde" unicode="&#xe3;" horiz-adv-x="1342" 
d="M1218 -2l2 2h-340v108q-131 -140 -336 -140q-224 0 -358 152q-136 154 -136 380q0 232 146 384t360 152q190 0 322 -144v112h340v-1006zM644 272q100 0 160 66t60 170q0 100 -62 162q-64 64 -154 64q-100 0 -164 -64t-64 -168q0 -100 60 -166q61 -64 164 -64zM980 1450
l-4 -4q-21 -268 -208 -268q-59 0 -148 40q-51 24 -76 24q-50 0 -62 -64h-170q21 268 208 268q59 0 148 -40q54 -24 78 -24q52 0 64 66h170v2z" />
    <glyph glyph-name="adieresis" unicode="&#xe4;" horiz-adv-x="1342" 
d="M1218 -2l2 2h-340v108q-131 -140 -336 -140q-224 0 -358 152q-136 154 -136 380q0 232 146 384t360 152q190 0 322 -144v112h340v-1006zM644 272q100 0 160 66t60 170q0 100 -62 162q-64 64 -154 64q-100 0 -164 -64t-64 -168q0 -100 60 -166q61 -64 164 -64zM898 1498
l-2 -2q74 0 126 -52t52 -124q0 -71 -52 -126q-52 -52 -126 -52q-72 0 -124 52t-52 126t52 126t126 52zM424 1500l-2 -4q74 0 126 -52t52 -124q0 -74 -52 -126t-126 -52q-72 0 -124 52t-52 126t52 126t126 52v2z" />
    <glyph glyph-name="aring" unicode="&#xe5;" horiz-adv-x="1342" 
d="M1218 -2l2 2h-340v108q-131 -140 -336 -140q-224 0 -358 152q-136 154 -136 380q0 232 146 384t360 152q190 0 322 -144v112h340v-1006zM644 272q100 0 160 66t60 170q0 100 -62 162q-64 64 -154 64q-100 0 -164 -64t-64 -168q0 -100 60 -166q61 -64 164 -64zM642 1604
q100 0 172 -72t72 -172t-72 -172t-172 -72t-172 72t-72 172t72 172t172 72zM642 1266v-2q40 0 68 28t28 68t-28 68t-68 28t-68 -28t-28 -68t28 -68t68 -28v2z" />
    <glyph glyph-name="ae" unicode="&#xe6;" horiz-adv-x="1850" 
d="M1794 414l4 -4h-724q15 -78 68 -122t122 -44q115 0 172 72l340 -94q-87 -123 -216 -186q-131 -64 -276 -64q-256 0 -414 200q-155 -200 -404 -200q-190 0 -300 92q-114 93 -114 260q0 160 116 252q118 94 292 94q155 0 252 -62v36q0 68 -68 106q-67 38 -176 38
q-175 0 -326 -68v256q186 64 354 64q167 0 252 -44q88 -45 138 -134q165 180 396 180q224 0 368 -156t144 -404v-68zM1422 616h2q-12 80 -56 124t-112 44q-69 0 -116 -44q-50 -47 -64 -124h346zM562 206l2 2q68 0 110 36t42 84q0 58 -38 90q-40 34 -108 34q-72 0 -114 -36
t-42 -92q0 -54 40 -88q38 -32 108 -32v2z" />
    <glyph glyph-name="ccedilla" unicode="&#xe7;" horiz-adv-x="972" 
d="M892 38l8 -2q-133 -62 -282 -68l-14 -48q152 -24 152 -168q0 -98 -86 -148q-89 -52 -248 -52q-75 0 -156 14l24 144q64 -8 108 -8q89 0 120 14q32 15 32 46q0 40 -82 40q-31 0 -76 -6l52 188q-183 48 -288 186q-106 142 -106 328q0 232 158 384q160 154 386 154
q164 0 302 -72v-324q-129 84 -254 84q-100 0 -164 -64t-64 -162t60 -158q61 -58 158 -58q123 0 260 82v-328v2z" />
    <glyph glyph-name="egrave" unicode="&#xe8;" horiz-adv-x="1238" 
d="M424 616h388q-15 85 -62 126q-48 42 -128 42q-84 0 -132 -42q-51 -42 -66 -126zM626 -36l6 4q-260 0 -420 148t-160 390q0 222 160 376q158 152 410 152q256 0 408 -152t152 -408v-68h-766q15 -81 70 -124q56 -44 140 -44q135 0 192 72l340 -94q-177 -252 -532 -252z
M842 1276h2l-140 -132l-350 272l184 174l304 -316v2z" />
    <glyph glyph-name="eacute" unicode="&#xe9;" horiz-adv-x="1238" 
d="M424 616h388q-15 85 -62 126q-48 42 -128 42q-84 0 -132 -42q-51 -42 -66 -126zM626 -36l6 4q-260 0 -420 148t-160 390q0 222 160 376q158 152 410 152q256 0 408 -152t152 -408v-68h-766q15 -81 70 -124q56 -44 140 -44q135 0 192 72l340 -94q-177 -252 -532 -252z
M898 1420l2 -4l-350 -272l-140 132l304 316l184 -174v2z" />
    <glyph glyph-name="ecircumflex" unicode="&#xea;" horiz-adv-x="1238" 
d="M424 616h388q-15 85 -62 126q-48 42 -128 42q-84 0 -132 -42q-51 -42 -66 -126zM626 -36l6 4q-260 0 -420 148t-160 390q0 222 160 376q158 152 410 152q256 0 408 -152t152 -408v-68h-766q15 -81 70 -124q56 -44 140 -44q135 0 192 72l340 -94q-177 -252 -532 -252z
M976 1296v-2l-136 -148l-208 184l-208 -184l-136 148l344 296l344 -296v2z" />
    <glyph glyph-name="edieresis" unicode="&#xeb;" horiz-adv-x="1238" 
d="M424 616h388q-15 85 -62 126q-48 42 -128 42q-84 0 -132 -42q-51 -42 -66 -126zM626 -36l6 4q-260 0 -420 148t-160 390q0 222 160 376q158 152 410 152q256 0 408 -152t152 -408v-68h-766q15 -81 70 -124q56 -44 140 -44q135 0 192 72l340 -94q-177 -252 -532 -252z
M860 1498l-2 -2q74 0 126 -52t52 -124q0 -71 -52 -126q-52 -52 -126 -52q-72 0 -124 52t-52 126t52 126t126 52zM386 1500l-2 -4q74 0 126 -52t52 -124q0 -74 -52 -126t-126 -52q-72 0 -124 52t-52 126t52 126t126 52v2z" />
    <glyph glyph-name="igrave" unicode="&#xec;" horiz-adv-x="602" 
d="M480 1006v-1006h-356v1006h356zM486 1276h2l-140 -132l-350 272l184 174l304 -316v2z" />
    <glyph glyph-name="iacute" unicode="&#xed;" horiz-adv-x="602" 
d="M480 1006v-1006h-356v1006h356zM600 1420l2 -4l-350 -272l-140 132l304 316l184 -174v2z" />
    <glyph glyph-name="icircumflex" unicode="&#xee;" horiz-adv-x="602" 
d="M480 1006v-1006h-356v1006h356zM644 1296v-2l-136 -148l-208 184l-208 -184l-136 148l344 296l344 -296v2z" />
    <glyph glyph-name="idieresis" unicode="&#xef;" horiz-adv-x="602" 
d="M480 1006v-1006h-356v1006h356zM542 1498l-2 -2q74 0 126 -52t52 -124q0 -71 -52 -126q-52 -52 -126 -52q-72 0 -124 52t-52 126t52 126t126 52zM66 1500l-2 -4q74 0 126 -52t52 -124q0 -74 -52 -126t-126 -52q-72 0 -124 52t-52 126t52 126t126 52v2z" />
    <glyph glyph-name="eth" unicode="&#xf0;" horiz-adv-x="1274" 
d="M810 1306l2 -2q196 -172 304 -376q108 -201 108 -392q0 -252 -164 -410t-424 -158q-252 0 -418 148q-166 151 -166 370q0 216 158 362t378 146q59 0 138 -22q-63 75 -168 168l-152 -100l-82 128l112 74q-51 43 -114 86l228 178q99 -68 138 -100l160 100l82 -124zM646 280
l-2 4q85 0 148 60q64 61 64 140q0 92 -60 152t-152 60q-94 0 -156 -62q-64 -64 -64 -154q0 -83 64 -144q64 -58 158 -58v2z" />
    <glyph glyph-name="ntilde" unicode="&#xf1;" horiz-adv-x="1264" 
d="M792 0h4v552q0 92 -24 134t-94 42q-88 0 -200 -124v-606h-356v1006h340v-116q166 148 328 148q172 0 266 -106q92 -104 92 -286v-644h-356zM968 1454l-4 -4q-21 -268 -208 -268q-59 0 -148 40q-51 24 -76 24q-50 0 -62 -64h-170q21 268 208 268q59 0 148 -40
q54 -24 78 -24q52 0 64 66h170v2z" />
    <glyph glyph-name="ograve" unicode="&#xf2;" horiz-adv-x="1274" 
d="M634 288l2 -4q90 0 154 64q62 62 62 158q0 93 -60 156q-64 64 -156 64q-90 0 -154 -64t-64 -154q0 -94 62 -156q64 -64 154 -64zM636 1034v2q259 0 424 -156q164 -152 164 -378q0 -225 -164 -380q-165 -156 -422 -156q-258 0 -424 154q-164 155 -164 382q0 220 162 376
q159 156 424 156zM814 1276h2l-140 -132l-350 272l184 174l304 -316v2z" />
    <glyph glyph-name="oacute" unicode="&#xf3;" horiz-adv-x="1274" 
d="M634 288l2 -4q90 0 154 64q62 62 62 158q0 93 -60 156q-64 64 -156 64q-90 0 -154 -64t-64 -154q0 -94 62 -156q64 -64 154 -64zM636 1034v2q259 0 424 -156q164 -152 164 -378q0 -225 -164 -380q-165 -156 -422 -156q-258 0 -424 154q-164 155 -164 382q0 220 162 376
q159 156 424 156zM950 1420l2 -4l-350 -272l-140 132l304 316l184 -174v2z" />
    <glyph glyph-name="ocircumflex" unicode="&#xf4;" horiz-adv-x="1274" 
d="M634 288l2 -4q90 0 154 64q62 62 62 158q0 93 -60 156q-64 64 -156 64q-90 0 -154 -64t-64 -154q0 -94 62 -156q64 -64 154 -64zM636 1034v2q259 0 424 -156q164 -152 164 -378q0 -225 -164 -380q-165 -156 -422 -156q-258 0 -424 154q-164 155 -164 382q0 220 162 376
q159 156 424 156zM980 1296v-2l-136 -148l-208 184l-208 -184l-136 148l344 296l344 -296v2z" />
    <glyph glyph-name="otilde" unicode="&#xf5;" horiz-adv-x="1274" 
d="M634 288l2 -4q90 0 154 64q62 62 62 158q0 93 -60 156q-64 64 -156 64q-90 0 -154 -64t-64 -154q0 -94 62 -156q64 -64 154 -64zM636 1034v2q259 0 424 -156q164 -152 164 -378q0 -225 -164 -380q-165 -156 -422 -156q-258 0 -424 154q-164 155 -164 382q0 220 162 376
q159 156 424 156zM976 1454l-4 -4q-21 -268 -208 -268q-59 0 -148 40q-51 24 -76 24q-50 0 -62 -64h-170q21 268 208 268q59 0 148 -40q54 -24 78 -24q52 0 64 66h170v2z" />
    <glyph glyph-name="odieresis" unicode="&#xf6;" horiz-adv-x="1274" 
d="M634 288l2 -4q90 0 154 64q62 62 62 158q0 93 -60 156q-64 64 -156 64q-90 0 -154 -64t-64 -154q0 -94 62 -156q64 -64 154 -64zM636 1034v2q259 0 424 -156q164 -152 164 -378q0 -225 -164 -380q-165 -156 -422 -156q-258 0 -424 154q-164 155 -164 382q0 220 162 376
q159 156 424 156zM874 1498l-2 -2q74 0 126 -52t52 -124q0 -71 -52 -126q-52 -52 -126 -52q-72 0 -124 52t-52 126t52 126t126 52zM400 1500l-2 -4q74 0 126 -52t52 -124q0 -74 -52 -126t-126 -52q-72 0 -124 52t-52 126t52 126t126 52v2z" />
    <glyph glyph-name="divide" unicode="&#xf7;" 
d="M648 1316q76 0 128 -52t52 -128t-52 -128t-128 -52t-128 52t-52 128t52 128t128 52zM1176 856v-288h-1056v288h1056zM648 466v2q76 0 128 -52t52 -128t-52 -128t-128 -52t-128 52t-52 128q0 74 52 126t128 52z" />
    <glyph glyph-name="oslash" unicode="&#xf8;" horiz-adv-x="1274" 
d="M1224 948l4 2l-124 -116q116 -143 116 -330q0 -225 -164 -380q-165 -156 -422 -156q-193 0 -340 90l-140 -132l-108 116l124 120q-124 142 -124 340q0 220 162 376q159 156 424 156q201 0 352 -98l132 128zM744 702v2q-49 26 -106 26q-98 0 -160 -68q-64 -70 -64 -160
q0 -51 18 -96zM542 296h2q43 -20 92 -20q97 0 160 66q64 70 64 164q0 46 -14 80l-304 -292v2z" />
    <glyph glyph-name="ugrave" unicode="&#xf9;" horiz-adv-x="1226" 
d="M1118 412v-2q0 -205 -134 -324q-136 -118 -374 -118q-235 0 -370 120q-134 119 -134 324v596h356v-536q0 -196 148 -196q152 0 152 196v536h356v-596zM802 1276h2l-140 -132l-350 272l184 174l304 -316v2z" />
    <glyph glyph-name="uacute" unicode="&#xfa;" horiz-adv-x="1226" 
d="M1118 412v-2q0 -205 -134 -324q-136 -118 -374 -118q-235 0 -370 120q-134 119 -134 324v596h356v-536q0 -196 148 -196q152 0 152 196v536h356v-596zM920 1420l2 -4l-350 -272l-140 132l304 316l184 -174v2z" />
    <glyph glyph-name="ucircumflex" unicode="&#xfb;" horiz-adv-x="1226" 
d="M1118 412v-2q0 -205 -134 -324q-136 -118 -374 -118q-235 0 -370 120q-134 119 -134 324v596h356v-536q0 -196 148 -196q152 0 152 196v536h356v-596zM944 1296v-2l-136 -148l-208 184l-208 -184l-136 148l344 296l344 -296v2z" />
    <glyph glyph-name="udieresis" unicode="&#xfc;" horiz-adv-x="1226" 
d="M1118 412v-2q0 -205 -134 -324q-136 -118 -374 -118q-235 0 -370 120q-134 119 -134 324v596h356v-536q0 -196 148 -196q152 0 152 196v536h356v-596zM852 1498l-2 -2q74 0 126 -52t52 -124q0 -71 -52 -126q-52 -52 -126 -52q-72 0 -124 52t-52 126t52 126t126 52z
M378 1500l-2 -4q74 0 126 -52t52 -124q0 -74 -52 -126t-126 -52q-72 0 -124 52t-52 126t52 126t126 52v2z" />
    <glyph glyph-name="yacute" unicode="&#xfd;" horiz-adv-x="1212" 
d="M844 1006h360l-616 -1450h-356l200 464l-414 986h372l228 -596zM894 1420l2 -4l-350 -272l-140 132l304 316l184 -174v2z" />
    <glyph glyph-name="thorn" unicode="&#xfe;" horiz-adv-x="1342" 
d="M478 912h2q136 124 320 124q222 0 356 -152t134 -378q0 -228 -138 -384q-141 -156 -358 -156q-180 0 -316 124v-536h-356v1910h356v-552zM692 274l4 -2q105 0 164 62q60 63 60 172q0 101 -60 164q-61 64 -164 64q-94 0 -158 -64q-62 -62 -62 -170q0 -102 62 -164
q61 -64 154 -64v2z" />
    <glyph glyph-name="ydieresis" unicode="&#xff;" horiz-adv-x="1212" 
d="M844 1006h360l-616 -1450h-356l200 464l-414 986h372l228 -596zM852 1498l-2 -2q74 0 126 -52t52 -124q0 -71 -52 -126q-52 -52 -126 -52q-72 0 -124 52t-52 126t52 126t126 52zM378 1500l-2 -4q74 0 126 -52t52 -124q0 -74 -52 -126t-126 -52q-72 0 -124 52t-52 126
t52 126t126 52v2z" />
    <glyph glyph-name="Amacron" unicode="&#x100;" horiz-adv-x="1586" 
d="M618 544h334l-170 428zM1562 0h2h-398l-84 216h-592l-82 -216h-390l576 1424h376zM1116 1586v-2h-668v192h668v-192v2z" />
    <glyph glyph-name="amacron" unicode="&#x101;" horiz-adv-x="1342" 
d="M1218 -2l2 2h-340v108q-131 -140 -336 -140q-224 0 -358 152q-136 154 -136 380q0 232 146 384t360 152q190 0 322 -144v112h340v-1006zM644 272q100 0 160 66t60 170q0 100 -62 162q-64 64 -154 64q-100 0 -164 -64t-64 -168q0 -100 60 -166q61 -64 164 -64zM1006 1222
v-2h-668v192h668v-192v2z" />
    <glyph glyph-name="Abreve" unicode="&#x102;" horiz-adv-x="1586" 
d="M618 544h334l-170 428zM1562 0h2h-398l-84 216h-592l-82 -216h-390l576 1424h376zM1098 1842l6 -2q-15 -132 -106 -214q-93 -84 -210 -84q-116 0 -210 82q-92 83 -110 216h188q9 -53 44 -82q37 -28 84 -28q44 0 80 30t48 80h186v2z" />
    <glyph glyph-name="abreve" unicode="&#x103;" horiz-adv-x="1342" 
d="M1218 -2l2 2h-340v108q-131 -140 -336 -140q-224 0 -358 152q-136 154 -136 380q0 232 146 384t360 152q190 0 322 -144v112h340v-1006zM644 272q100 0 160 66t60 170q0 100 -62 162q-64 64 -154 64q-100 0 -164 -64t-64 -168q0 -100 60 -166q61 -64 164 -64zM970 1462
l6 -2q-15 -132 -106 -214q-93 -84 -210 -84q-116 0 -210 82q-92 83 -110 216h188q9 -53 44 -82q37 -28 84 -28q44 0 80 30t48 80h186v2z" />
    <glyph glyph-name="Aogonek" unicode="&#x104;" horiz-adv-x="1586" 
d="M618 544h334l-170 428zM1562 -258l2 4l-32 -160q-77 -20 -164 -20q-86 0 -138 52t-52 132q0 125 144 248h-156l-84 216h-592l-82 -216h-388l576 1426h376l592 -1426h-56q-61 -39 -100 -100q-40 -62 -40 -108q0 -68 80 -68q48 0 114 18v2z" />
    <glyph glyph-name="aogonek" unicode="&#x105;" horiz-adv-x="1342" 
d="M1220 -264v10l-32 -160q-77 -20 -164 -20q-86 0 -138 52t-52 132q0 125 144 248h-100v108q-122 -140 -332 -140q-223 0 -358 150q-136 154 -136 380q0 230 146 382q145 154 360 154q195 0 324 -144v112h340v-1006h-56q-61 -39 -100 -100q-40 -62 -40 -108q0 -68 80 -68
q48 0 114 18zM648 730v2q-100 0 -164 -64t-64 -168q0 -101 60 -164q61 -64 162 -64q99 0 160 64q60 63 60 168q0 99 -60 162q-64 64 -154 64z" />
    <glyph glyph-name="Cacute" unicode="&#x106;" horiz-adv-x="1372" 
d="M1284 54l-4 -6q-213 -90 -442 -90q-352 0 -568 216t-216 540q0 206 102 380q99 176 280 276q182 100 392 100q231 0 452 -94v-414q-209 124 -432 124q-164 0 -268 -104q-106 -106 -106 -266t104 -264q101 -104 282 -104q196 0 424 120v-414zM1098 1820l2 -4l-350 -272
l-140 132l304 316l184 -174v2z" />
    <glyph glyph-name="cacute" unicode="&#x107;" horiz-adv-x="972" 
d="M892 34l8 2q-145 -68 -306 -68q-234 0 -388 148q-156 147 -156 380q0 232 158 384q160 154 386 154q164 0 302 -72v-324q-129 84 -254 84q-100 0 -164 -64t-64 -162t60 -158q61 -58 158 -58q123 0 260 82v-328zM898 1420l2 -4l-350 -272l-140 132l304 316l184 -174v2z
" />
    <glyph glyph-name="Ccircumflex" unicode="&#x108;" horiz-adv-x="1372" 
d="M1284 54l-4 -6q-213 -90 -442 -90q-352 0 -568 216t-216 540q0 206 102 380q99 176 280 276q182 100 392 100q231 0 452 -94v-414q-209 124 -432 124q-164 0 -268 -104q-106 -106 -106 -266t104 -264q101 -104 282 -104q196 0 424 120v-414zM1168 1694v-2l-136 -148
l-208 184l-208 -184l-136 148l344 296l344 -296v2z" />
    <glyph glyph-name="ccircumflex" unicode="&#x109;" horiz-adv-x="972" 
d="M892 34l8 2q-145 -68 -306 -68q-234 0 -388 148q-156 147 -156 380q0 232 158 384q160 154 386 154q164 0 302 -72v-324q-129 84 -254 84q-100 0 -164 -64t-64 -162t60 -158q61 -58 158 -58q123 0 260 82v-328zM914 1296v-2l-136 -148l-208 184l-208 -184l-136 148
l344 296l344 -296v2z" />
    <glyph glyph-name="Cdotaccent" unicode="&#x10a;" horiz-adv-x="1372" 
d="M1284 54l-4 -6q-213 -90 -442 -90q-352 0 -568 216t-216 540q0 206 102 380q99 176 280 276q182 100 392 100q231 0 452 -94v-414q-209 124 -432 124q-164 0 -268 -104q-106 -106 -106 -266t104 -264q101 -104 282 -104q196 0 424 120v-414zM830 1904l-2 -2q71 0 126 -52
q52 -52 52 -124q0 -71 -52 -126q-55 -52 -126 -52q-72 0 -124 52t-52 126q0 72 52 124t126 52v2z" />
    <glyph glyph-name="cdotaccent" unicode="&#x10b;" horiz-adv-x="972" 
d="M892 34l8 2q-145 -68 -306 -68q-234 0 -388 148q-156 147 -156 380q0 232 158 384q160 154 386 154q164 0 302 -72v-324q-129 84 -254 84q-100 0 -164 -64t-64 -162t60 -158q61 -58 158 -58q123 0 260 82v-328zM590 1498l-2 -2q71 0 126 -52q52 -52 52 -124
q0 -71 -52 -126q-55 -52 -126 -52q-72 0 -124 52t-52 126q0 72 52 124t126 52v2z" />
    <glyph glyph-name="Ccaron" unicode="&#x10c;" horiz-adv-x="1372" 
d="M1284 54l-4 -6q-213 -90 -442 -90q-352 0 -568 216t-216 540q0 206 102 380q99 176 280 276q182 100 392 100q231 0 452 -94v-414q-209 124 -432 124q-164 0 -268 -104q-106 -106 -106 -266t104 -264q101 -104 282 -104q196 0 424 120v-414zM1164 1842v-2l-344 -296
l-344 296l136 148l208 -184l208 184l136 -148v2z" />
    <glyph glyph-name="ccaron" unicode="&#x10d;" horiz-adv-x="972" 
d="M892 34l8 2q-145 -68 -306 -68q-234 0 -388 148q-156 147 -156 380q0 232 158 384q160 154 386 154q164 0 302 -72v-324q-129 84 -254 84q-100 0 -164 -64t-64 -162t60 -158q61 -58 158 -58q123 0 260 82v-328zM922 1444v-2l-344 -296l-344 296l136 148l208 -184l208 184
l136 -148v2z" />
    <glyph glyph-name="Dcaron" unicode="&#x10e;" horiz-adv-x="1484" 
d="M128 1422v2h502q373 0 586 -192q212 -188 212 -518q0 -327 -210 -522q-212 -194 -610 -194h-480v1424zM526 350v-2h80q205 0 306 92q100 94 100 280q0 173 -108 266q-108 96 -300 96h-78v-732zM934 1844v-2l-344 -296l-344 296l136 148l208 -184l208 184l136 -148v2z" />
    <glyph glyph-name="dcaron" unicode="&#x10f;" horiz-adv-x="1626" 
d="M1218 2l2 -2h-340v106q-139 -136 -338 -136q-222 0 -356 152q-136 154 -136 378q0 229 140 384q138 156 358 156q178 0 314 -124v552h356v-1466zM644 274l-4 -2q94 0 158 64q62 62 62 172q0 101 -60 164q-64 64 -156 64q-105 0 -164 -62q-60 -63 -60 -170q0 -103 60 -166
q61 -64 164 -64zM1472 894v2h-166q85 129 122 240q-48 14 -82 60q-32 44 -32 100q0 69 52 118q50 50 122 50q73 0 120 -50q48 -51 48 -120q0 -134 -184 -402v2z" />
    <glyph glyph-name="Dcroat" unicode="&#x110;" horiz-adv-x="1484" 
d="M128 1426v-2h502q373 0 586 -192q212 -188 212 -518q0 -327 -210 -522q-212 -194 -610 -194h-480v556h-128v312h128v560zM526 346v2h80q406 0 406 372q0 173 -108 266q-108 96 -300 96h-78v-216h200v-312h-200v-208z" />
    <glyph glyph-name="dcroat" unicode="&#x111;" horiz-adv-x="1342" 
d="M1344 1116v-2h-124v-1114h-340v108q-136 -136 -338 -136q-221 0 -356 150q-136 151 -136 378q0 229 140 384q138 156 358 156q183 0 316 -124v200h-380v224h380v128h356v-128h124v-224zM648 736l-4 -4q-105 0 -164 -62q-60 -60 -60 -170q0 -105 60 -168q59 -62 164 -62
q96 0 160 64q60 63 60 172q0 101 -60 164q-64 64 -156 64v2z" />
    <glyph glyph-name="Emacron" unicode="&#x112;" horiz-adv-x="1118" 
d="M1040 -2v2h-912v1424h892v-338h-494v-206h468v-332h-468v-212h514v-338zM904 1632v-2h-668v192h668v-192v2z" />
    <glyph glyph-name="emacron" unicode="&#x113;" horiz-adv-x="1238" 
d="M424 616h388q-15 85 -62 126q-48 42 -128 42q-84 0 -132 -42q-51 -42 -66 -126zM626 -36l6 4q-260 0 -420 148t-160 390q0 222 160 376q158 152 410 152q256 0 408 -152t152 -408v-68h-766q15 -81 70 -124q56 -44 140 -44q135 0 192 72l340 -94q-177 -252 -532 -252z
M956 1222v-2h-668v192h668v-192v2z" />
    <glyph glyph-name="Ebreve" unicode="&#x114;" horiz-adv-x="1118" 
d="M1040 -2v2h-912v1424h892v-338h-494v-206h468v-332h-468v-212h514v-338zM912 1842l6 -2q-15 -132 -106 -214q-93 -84 -210 -84q-116 0 -210 82q-92 83 -110 216h188q9 -53 44 -82q37 -28 84 -28q44 0 80 30t48 80h186v2z" />
    <glyph glyph-name="ebreve" unicode="&#x115;" horiz-adv-x="1238" 
d="M424 616h388q-15 85 -62 126q-48 42 -128 42q-84 0 -132 -42q-51 -42 -66 -126zM626 -36l6 4q-260 0 -420 148t-160 390q0 222 160 376q158 152 410 152q256 0 408 -152t152 -408v-68h-766q15 -81 70 -124q56 -44 140 -44q135 0 192 72l340 -94q-177 -252 -532 -252z
M928 1462l6 -2q-15 -132 -106 -214q-93 -84 -210 -84q-116 0 -210 82q-92 83 -110 216h188q9 -53 44 -82q37 -28 84 -28q44 0 80 30t48 80h186v2z" />
    <glyph glyph-name="Edotaccent" unicode="&#x116;" horiz-adv-x="1118" 
d="M1040 -2v2h-912v1424h892v-338h-494v-206h468v-332h-468v-212h514v-338zM590 1904l-2 -2q71 0 126 -52q52 -52 52 -124q0 -71 -52 -126q-55 -52 -126 -52q-72 0 -124 52t-52 126q0 72 52 124t126 52v2z" />
    <glyph glyph-name="edotaccent" unicode="&#x117;" horiz-adv-x="1238" 
d="M424 616h388q-15 85 -62 126q-48 42 -128 42q-84 0 -132 -42q-51 -42 -66 -126zM626 -36l6 4q-260 0 -420 148t-160 390q0 222 160 376q158 152 410 152q256 0 408 -152t152 -408v-68h-766q15 -81 70 -124q56 -44 140 -44q135 0 192 72l340 -94q-177 -252 -532 -252z
M624 1498l-2 -2q71 0 126 -52q52 -52 52 -124q0 -71 -52 -126q-55 -52 -126 -52q-72 0 -124 52t-52 126q0 72 52 124t126 52v2z" />
    <glyph glyph-name="Eogonek" unicode="&#x118;" horiz-adv-x="1118" 
d="M1036 -260l4 6l-32 -160q-77 -20 -164 -20q-86 0 -138 52t-52 132q0 125 144 248h-674v1426h892v-338h-492v-208h468v-332h-468v-212h514v-338h-56q-61 -39 -100 -100q-40 -62 -40 -108q0 -68 80 -68q48 0 114 18v2z" />
    <glyph glyph-name="eogonek" unicode="&#x119;" horiz-adv-x="1238" 
d="M1180 404l6 6h-766q27 -166 212 -166q140 0 194 72l340 -96q-147 -210 -424 -246q-106 -88 -106 -180q0 -68 80 -68q48 0 114 18l-32 -160q-77 -20 -164 -20q-86 0 -138 52t-52 132q0 114 114 222q-233 21 -370 164q-140 143 -140 368q0 224 160 378q158 152 410 152
q258 0 410 -152t152 -408v-68zM814 618l-2 -2q-24 168 -188 168q-171 0 -198 -168h388v2z" />
    <glyph glyph-name="Ecaron" unicode="&#x11a;" horiz-adv-x="1118" 
d="M1040 -2v2h-912v1424h892v-338h-494v-206h468v-332h-468v-212h514v-338zM930 1842v-2l-344 -296l-344 296l136 148l208 -184l208 184l136 -148v2z" />
    <glyph glyph-name="ecaron" unicode="&#x11b;" horiz-adv-x="1238" 
d="M424 616h388q-15 85 -62 126q-48 42 -128 42q-84 0 -132 -42q-51 -42 -66 -126zM626 -36l6 4q-260 0 -420 148t-160 390q0 222 160 376q158 152 410 152q256 0 408 -152t152 -408v-68h-766q15 -81 70 -124q56 -44 140 -44q135 0 192 72l340 -94q-177 -252 -532 -252z
M964 1444v-2l-344 -296l-344 296l136 148l208 -184l208 184l136 -148v2z" />
    <glyph glyph-name="Gcircumflex" unicode="&#x11c;" horiz-adv-x="1604" 
d="M1550 660l-4 -4q0 -330 -196 -514t-514 -184q-338 0 -558 214t-220 540q0 313 216 532q217 220 572 220q210 0 380 -82q167 -80 260 -222l-320 -216q-113 158 -318 158q-163 0 -268 -108q-104 -107 -104 -280q0 -188 106 -294q104 -104 274 -104q121 0 202 48t108 128
h-308v314h692v-146zM1172 1694v-2l-136 -148l-208 184l-208 -184l-136 148l344 296l344 -296v2z" />
    <glyph glyph-name="gcircumflex" unicode="&#x11d;" horiz-adv-x="1324" 
d="M1202 44h-2q0 -235 -148 -362q-150 -126 -438 -126q-244 0 -388 96t-156 272h344q21 -104 200 -104q228 0 228 254v48q-139 -124 -314 -124q-213 0 -346 148q-132 147 -132 366q0 212 144 368q141 156 358 156q187 0 310 -144v112h340v-960zM632 302v2q89 0 148 62
q60 63 60 158q0 87 -58 148q-59 62 -148 62q-95 0 -156 -64q-60 -63 -60 -156q0 -85 60 -148q61 -64 154 -64zM984 1296v-2l-136 -148l-208 184l-208 -184l-136 148l344 296l344 -296v2z" />
    <glyph glyph-name="Gbreve" unicode="&#x11e;" horiz-adv-x="1604" 
d="M1550 660l-4 -4q0 -330 -196 -514t-514 -184q-338 0 -558 214t-220 540q0 313 216 532q217 220 572 220q210 0 380 -82q167 -80 260 -222l-320 -216q-113 158 -318 158q-163 0 -268 -108q-104 -107 -104 -280q0 -188 106 -294q104 -104 274 -104q121 0 202 48t108 128
h-308v314h692v-146zM1150 1842l6 -2q-15 -132 -106 -214q-93 -84 -210 -84q-116 0 -210 82q-92 83 -110 216h188q9 -53 44 -82q37 -28 84 -28q44 0 80 30t48 80h186v2z" />
    <glyph glyph-name="gbreve" unicode="&#x11f;" horiz-adv-x="1324" 
d="M1202 44h-2q0 -235 -148 -362q-150 -126 -438 -126q-244 0 -388 96t-156 272h344q21 -104 200 -104q228 0 228 254v48q-139 -124 -314 -124q-213 0 -346 148q-132 147 -132 366q0 212 144 368q141 156 358 156q187 0 310 -144v112h340v-960zM632 302v2q89 0 148 62
q60 63 60 158q0 87 -58 148q-59 62 -148 62q-95 0 -156 -64q-60 -63 -60 -156q0 -85 60 -148q61 -64 154 -64zM950 1462l6 -2q-15 -132 -106 -214q-93 -84 -210 -84q-116 0 -210 82q-92 83 -110 216h188q9 -53 44 -82q37 -28 84 -28q44 0 80 30t48 80h186v2z" />
    <glyph glyph-name="Gdotaccent" unicode="&#x120;" horiz-adv-x="1604" 
d="M1550 660l-4 -4q0 -330 -196 -514t-514 -184q-338 0 -558 214t-220 540q0 313 216 532q217 220 572 220q210 0 380 -82q167 -80 260 -222l-320 -216q-113 158 -318 158q-163 0 -268 -108q-104 -107 -104 -280q0 -188 106 -294q104 -104 274 -104q121 0 202 48t108 128
h-308v314h692v-146zM834 1904l-2 -2q71 0 126 -52q52 -52 52 -124q0 -71 -52 -126q-55 -52 -126 -52q-72 0 -124 52t-52 126q0 72 52 124t126 52v2z" />
    <glyph glyph-name="gdotaccent" unicode="&#x121;" horiz-adv-x="1324" 
d="M1202 44h-2q0 -235 -148 -362q-150 -126 -438 -126q-244 0 -388 96t-156 272h344q21 -104 200 -104q228 0 228 254v48q-139 -124 -314 -124q-213 0 -346 148q-132 147 -132 366q0 212 144 368q141 156 358 156q187 0 310 -144v112h340v-960zM632 302v2q89 0 148 62
q60 63 60 158q0 87 -58 148q-59 62 -148 62q-95 0 -156 -64q-60 -63 -60 -156q0 -85 60 -148q61 -64 154 -64zM646 1498l-2 -2q71 0 126 -52q52 -52 52 -124q0 -71 -52 -126q-55 -52 -126 -52q-72 0 -124 52t-52 126q0 72 52 124t126 52v2z" />
    <glyph glyph-name="Gcommaaccent" unicode="&#x122;" horiz-adv-x="1604" 
d="M1550 660l-4 -4q0 -330 -196 -514t-514 -184q-338 0 -558 214t-220 540q0 313 216 532q217 220 572 220q210 0 380 -82q167 -80 260 -222l-320 -216q-113 158 -318 158q-163 0 -268 -108q-104 -107 -104 -280q0 -188 106 -294q104 -104 274 -104q121 0 202 48t108 128
h-308v314h692v-146zM798 -374l2 -2q-79 3 -120 38q-40 34 -40 98q0 70 52 116q50 44 144 44q82 0 138 -44t56 -116q0 -77 -44 -144q-45 -70 -130 -128h-180q90 77 122 136v2z" />
    <glyph glyph-name="gcommaaccent" unicode="&#x123;" horiz-adv-x="1324" 
d="M1202 44h-2q0 -235 -148 -362q-150 -126 -438 -126q-244 0 -388 96t-156 272h344q21 -104 200 -104q228 0 228 254v48q-139 -124 -314 -124q-213 0 -346 148q-132 147 -132 366q0 212 144 368q141 156 358 156q187 0 310 -144v112h340v-960zM632 302v2q89 0 148 62
q60 63 60 158q0 87 -58 148q-59 62 -148 62q-95 0 -156 -64q-60 -63 -60 -156q0 -85 60 -148q61 -64 154 -64zM834 1712l-2 -2q-115 -156 -136 -238q50 -15 88 -62q34 -46 34 -100q0 -76 -48 -124q-51 -48 -122 -48q-77 0 -124 50q-48 51 -48 120q0 150 192 402h166v2z" />
    <glyph glyph-name="Hcircumflex" unicode="&#x124;" horiz-adv-x="1568" 
d="M1440 1424v-1424h-400v544h-514v-544h-400v1424h400v-536h514v536h400zM1132 1694v-2l-136 -148l-208 184l-208 -184l-136 148l344 296l344 -296v2z" />
    <glyph glyph-name="hcircumflex" unicode="&#x125;" horiz-adv-x="1264" 
d="M1148 -4l4 4h-356v552q0 92 -24 134t-94 42q-88 0 -200 -124v-606h-356v1466h356v-564q156 132 312 132q172 0 266 -106q92 -104 92 -286v-644zM956 1694v-2l-136 -148l-208 184l-208 -184l-136 148l344 296l344 -296v2z" />
    <glyph glyph-name="Hbar" unicode="&#x126;" horiz-adv-x="1568" 
d="M1568 1260v-224h-128v-1036h-400v544h-514v-544h-400v1036h-128v224h128v168h400v-168h514v168h400v-168h128zM1040 890v-2v146h-514v-146h514v2z" />
    <glyph glyph-name="hbar" unicode="&#x127;" horiz-adv-x="1264" 
d="M1150 2l2 -2h-356v552q0 112 -32 144t-86 32q-89 0 -198 -124v-606h-356v1114h-124v226h124v128h356v-128h342v-226h-342v-212q155 134 312 134q172 0 266 -106q92 -104 92 -284v-644v2z" />
    <glyph glyph-name="Itilde" unicode="&#x128;" horiz-adv-x="654" 
d="M526 1424v-1424h-400v1424h400zM668 1816l-4 -4q-21 -268 -208 -268q-59 0 -148 40q-51 24 -76 24q-50 0 -62 -64h-170q21 268 208 268q59 0 148 -40q54 -24 78 -24q52 0 64 66h170v2z" />
    <glyph glyph-name="itilde" unicode="&#x129;" horiz-adv-x="602" 
d="M480 1006v-1006h-356v1006h356zM640 1450l-4 -4q-21 -268 -208 -268q-59 0 -148 40q-51 24 -76 24q-50 0 -62 -64h-170q21 268 208 268q59 0 148 -40q54 -24 78 -24q52 0 64 66h170v2z" />
    <glyph glyph-name="uni012A" unicode="&#x12a;" horiz-adv-x="654" 
d="M526 1424v-1424h-400v1424h400zM660 1632v-2h-668v192h668v-192v2z" />
    <glyph glyph-name="imacron" unicode="&#x12b;" horiz-adv-x="602" 
d="M480 1006v-1006h-356v1006h356zM636 1222v-2h-668v192h668v-192v2z" />
    <glyph glyph-name="Ibreve" unicode="&#x12c;" horiz-adv-x="654" 
d="M526 1424v-1424h-400v1424h400zM640 1842l6 -2q-15 -132 -106 -214q-93 -84 -210 -84q-116 0 -210 82q-92 83 -110 216h188q9 -53 44 -82q37 -28 84 -28q44 0 80 30t48 80h186v2z" />
    <glyph glyph-name="uni012D" unicode="&#x12d;" horiz-adv-x="602" 
d="M480 1006v-1006h-356v1006h356zM614 1508l6 -2q-15 -132 -106 -214q-93 -84 -210 -84q-116 0 -210 82q-92 83 -110 216h188q9 -53 44 -82q37 -28 84 -28q44 0 80 30t48 80h186v2z" />
    <glyph glyph-name="Iogonek" unicode="&#x12e;" horiz-adv-x="654" 
d="M526 -4l2 4h-60q-61 -39 -100 -100q-40 -62 -40 -108q0 -68 80 -68q49 0 112 18l-30 -160q-77 -20 -164 -20q-86 0 -138 52t-52 132q0 126 146 248h-156v1426h400v-1426v2z" />
    <glyph glyph-name="iogonek" unicode="&#x12f;" horiz-adv-x="604" 
d="M300 1132v-4q-78 0 -134 56t-56 136t56 136t134 56q80 0 136 -56t56 -134t-56 -134t-136 -56zM502 -258l4 4l-32 -160q-77 -20 -166 -20q-84 0 -136 52t-52 132q0 125 144 248h-144v1006h356v-1006h-28q-61 -39 -100 -100q-40 -62 -40 -108q0 -68 80 -68q48 0 114 18v2z
" />
    <glyph glyph-name="Idotaccent" unicode="&#x130;" horiz-adv-x="654" 
d="M526 1424v-1424h-400v1424h400zM330 1904l-2 -2q71 0 126 -52q52 -52 52 -124q0 -71 -52 -126q-55 -52 -126 -52q-72 0 -124 52t-52 126q0 72 52 124t126 52v2z" />
    <glyph glyph-name="dotlessi" unicode="&#x131;" horiz-adv-x="602" 
d="M480 2v-2h-356v1006h356v-1006v2z" />
    <glyph glyph-name="IJ" unicode="&#x132;" horiz-adv-x="1688" 
d="M526 1424v-1424h-400v1424h400zM1554 452l2 -8q0 -226 -124 -356q-122 -128 -348 -128q-315 0 -496 292l256 204q97 -160 188 -160q60 0 92 44t32 124v966h398v-980v2z" />
    <glyph glyph-name="ij" unicode="&#x133;" horiz-adv-x="1136" 
d="M300 1508q78 0 134 -56t56 -134t-56 -134t-134 -56t-134 56t-56 134t56 134t134 56zM480 1006v-1006h-356v1006h356zM832 1508q78 0 134 -56t56 -134t-56 -134t-134 -56t-134 56t-56 134t56 134t134 56zM1012 32h-2q0 -223 -124 -350q-123 -126 -360 -126h-52v316
q99 0 140 44q42 45 42 156v934h356v-976v2z" />
    <glyph glyph-name="Jcircumflex" unicode="&#x134;" horiz-adv-x="1092" 
d="M962 450l2 -6q0 -226 -124 -356q-122 -128 -348 -128q-315 0 -496 292l256 204q97 -160 188 -160q60 0 92 44t32 124v966h398v-980zM1024 1690v-2l-136 -148l-208 184l-208 -184l-136 148l344 296l344 -296v2z" />
    <glyph glyph-name="jcircumflex" unicode="&#x135;" horiz-adv-x="604" 
d="M482 30l-2 2q0 -223 -124 -350q-123 -126 -360 -126h-52v316q99 0 140 44q42 45 42 156v934h356v-976zM648 1296v-2l-136 -148l-208 184l-208 -184l-136 148l344 296l344 -296v2z" />
    <glyph glyph-name="Kcommaaccent" unicode="&#x136;" horiz-adv-x="1522" 
d="M1498 0h2h-524l-452 618v-618h-400v1424h400v-600l456 600h506l-564 -688zM722 -374l2 -2q-79 3 -120 38q-40 34 -40 98q0 70 52 116q50 44 144 44q82 0 138 -44t56 -116q0 -77 -44 -144q-45 -70 -130 -128h-180q90 77 122 136v2z" />
    <glyph glyph-name="kcommaaccent" unicode="&#x137;" horiz-adv-x="1230" 
d="M1226 2l2 -2h-440l-308 442v-442h-356v1466h356v-832l304 372h412l-388 -448zM592 -374l2 -2q-79 3 -120 38q-40 34 -40 98q0 70 52 116q50 44 144 44q82 0 138 -44t56 -116q0 -77 -44 -144q-45 -70 -130 -128h-180q90 77 122 136v2z" />
    <glyph glyph-name="kgreenlandic" unicode="&#x138;" horiz-adv-x="1230" 
d="M1228 4v-4h-438l-310 444v-444h-356v1006h356v-372l306 372h412l-388 -448l418 -556v2z" />
    <glyph glyph-name="Lacute" unicode="&#x139;" horiz-adv-x="1102" 
d="M1042 0h-2h-912v1424h400v-1060h514v-364zM726 1820l2 -4l-350 -272l-140 132l304 316l184 -174v2z" />
    <glyph glyph-name="lacute" unicode="&#x13a;" horiz-adv-x="602" 
d="M480 1466v-1466h-356v1466h356zM584 1820l2 -4l-350 -272l-140 132l304 316l184 -174v2z" />
    <glyph glyph-name="Lcommaaccent" unicode="&#x13b;" horiz-adv-x="1102" 
d="M1042 0h-2h-912v1424h400v-1060h514v-364zM546 -374l2 -2q-79 3 -120 38q-40 34 -40 98q0 70 52 116q50 44 144 44q82 0 138 -44t56 -116q0 -77 -44 -144q-45 -70 -130 -128h-180q90 77 122 136v2z" />
    <glyph glyph-name="lcommaaccent" unicode="&#x13c;" horiz-adv-x="602" 
d="M480 1466v-1466h-356v1466h356zM270 -374l2 -2q-79 3 -120 38q-40 34 -40 98q0 70 52 116q50 44 144 44q82 0 138 -44t56 -116q0 -77 -44 -144q-45 -70 -130 -128h-180q90 77 122 136v2z" />
    <glyph glyph-name="Lcaron" unicode="&#x13d;" horiz-adv-x="1102" 
d="M1042 0h-2h-912v1424h400v-1060h514v-364zM828 894v2h-166q85 129 122 240q-48 14 -82 60q-32 44 -32 100q0 69 52 118q50 50 122 50q73 0 120 -50q48 -51 48 -120q0 -134 -184 -402v2z" />
    <glyph glyph-name="lcaron" unicode="&#x13e;" horiz-adv-x="930" 
d="M480 1466v-1466h-356v1466h356zM776 894v2h-166q85 129 122 240q-48 14 -82 60q-32 44 -32 100q0 69 52 118q50 50 122 50q73 0 120 -50q48 -51 48 -120q0 -134 -184 -402v2z" />
    <glyph glyph-name="Ldot" unicode="&#x13f;" horiz-adv-x="1102" 
d="M1042 0h-2h-912v1424h400v-1060h514v-364zM784 656v-4q-76 0 -128 52t-52 128q0 74 52 126t128 52q74 0 126 -52t52 -126t-52 -126t-126 -52v2z" />
    <glyph glyph-name="ldot" unicode="&#x140;" horiz-adv-x="998" 
d="M480 1466v-1466h-356v1466h356zM736 560v-4q-76 0 -128 52t-52 128q0 74 52 126t128 52q74 0 126 -52t52 -126t-52 -126t-126 -52v2z" />
    <glyph glyph-name="Lslash" unicode="&#x141;" horiz-adv-x="1102" 
d="M1042 2l-2 -2h-912v448l-136 -96v312l136 96v664h400v-384l220 156v-312l-220 -156v-364h514v-364v2z" />
    <glyph glyph-name="lslash" unicode="&#x142;" horiz-adv-x="602" 
d="M628 864v-2l-150 -106v-756h-356v502l-148 -104v312l148 104v652h356v-400l150 108v-312v2z" />
    <glyph glyph-name="Nacute" unicode="&#x143;" horiz-adv-x="1606" 
d="M1482 2l-2 -2h-426q-369 556 -422 642q-59 95 -118 202v-842h-388v1424h428q245 -368 436 -660q52 -80 104 -180v840h388v-1424zM1138 1820l2 -4l-350 -272l-140 132l304 316l184 -174v2z" />
    <glyph glyph-name="nacute" unicode="&#x144;" horiz-adv-x="1264" 
d="M792 0h4v552q0 92 -24 134t-94 42q-88 0 -200 -124v-606h-356v1006h340v-116q166 148 328 148q172 0 266 -106q92 -104 92 -286v-644h-356zM954 1420l2 -4l-350 -272l-140 132l304 316l184 -174v2z" />
    <glyph glyph-name="Ncommaaccent" unicode="&#x145;" horiz-adv-x="1606" 
d="M1482 2l-2 -2h-426q-369 556 -422 642q-59 95 -118 202v-842h-388v1424h428q245 -368 436 -660q52 -80 104 -180v840h388v-1424zM774 -374l2 -2q-79 3 -120 38q-40 34 -40 98q0 70 52 116q50 44 144 44q82 0 138 -44t56 -116q0 -77 -44 -144q-45 -70 -130 -128h-180
q90 77 122 136v2z" />
    <glyph glyph-name="ncommaaccent" unicode="&#x146;" horiz-adv-x="1264" 
d="M792 0h4v552q0 92 -24 134t-94 42q-88 0 -200 -124v-606h-356v1006h340v-116q166 148 328 148q172 0 266 -106q92 -104 92 -286v-644h-356zM610 -374l2 -2q-79 3 -120 38q-40 34 -40 98q0 70 52 116q50 44 144 44q82 0 138 -44t56 -116q0 -77 -44 -144q-45 -70 -130 -128
h-180q90 77 122 136v2z" />
    <glyph glyph-name="Ncaron" unicode="&#x147;" horiz-adv-x="1606" 
d="M1482 2l-2 -2h-426q-369 556 -422 642q-59 95 -118 202v-842h-388v1424h428q245 -368 436 -660q52 -80 104 -180v840h388v-1424zM1164 1844v-2l-344 -296l-344 296l136 148l208 -184l208 184l136 -148v2z" />
    <glyph glyph-name="ncaron" unicode="&#x148;" horiz-adv-x="1264" 
d="M792 0h4v552q0 92 -24 134t-94 42q-88 0 -200 -124v-606h-356v1006h340v-116q166 148 328 148q172 0 266 -106q92 -104 92 -286v-644h-356zM992 1444v-2l-344 -296l-344 296l136 148l208 -184l208 184l136 -148v2z" />
    <glyph glyph-name="napostrophe" unicode="&#x149;" horiz-adv-x="1558" 
d="M246 896h-2h-166q114 155 136 240q-54 16 -86 60q-36 45 -36 104q0 75 50 122q51 48 122 48q75 0 124 -52q48 -51 48 -120q0 -149 -190 -402zM1444 2v-2h-356v552q0 112 -32 144t-86 32q-89 0 -198 -124v-606h-356v1006h340v-116q166 148 328 148q172 0 266 -106t94 -286
v-644v2z" />
    <glyph glyph-name="Eng" unicode="&#x14a;" horiz-adv-x="1568" 
d="M1450 418l-2 -2q0 -202 -124 -332q-122 -128 -344 -128q-230 0 -402 208l228 216q71 -98 152 -98q92 0 92 158v472q0 256 -198 256q-139 0 -316 -180v-988h-402v1426h402v-174q210 216 462 216q228 0 340 -136t112 -420v-496v2z" />
    <glyph glyph-name="eng" unicode="&#x14b;" horiz-adv-x="1264" 
d="M1150 30l2 2q0 -230 -128 -352q-130 -124 -360 -124h-52v316q97 0 138 44q42 45 42 156v480q0 112 -32 144t-86 32q-89 0 -198 -124v-606h-356v1006h340v-156q188 188 362 188q154 0 240 -104q88 -106 88 -290v-614v2z" />
    <glyph glyph-name="Omacron" unicode="&#x14c;" horiz-adv-x="1672" 
d="M834 344q160 0 264 104t104 264q0 158 -104 262t-264 104q-154 0 -260 -106q-104 -104 -104 -260q0 -157 102 -262q103 -106 262 -106zM834 1464v2q331 0 556 -216q224 -215 224 -540q0 -328 -224 -540q-226 -214 -556 -214q-329 0 -554 216q-224 215 -224 538t224 538
q225 216 554 216zM1168 1586v-2h-668v192h668v-192v2z" />
    <glyph glyph-name="omacron" unicode="&#x14d;" horiz-adv-x="1274" 
d="M634 288l2 -4q90 0 154 64q62 62 62 158q0 93 -60 156q-64 64 -156 64q-90 0 -154 -64t-64 -154q0 -94 62 -156q64 -64 154 -64zM636 1034v2q259 0 424 -156q164 -152 164 -378q0 -225 -164 -380q-165 -156 -422 -156q-258 0 -424 154q-164 155 -164 382q0 220 162 376
q159 156 424 156zM972 1222v-2h-668v192h668v-192v2z" />
    <glyph glyph-name="Obreve" unicode="&#x14e;" horiz-adv-x="1672" 
d="M834 344q160 0 264 104t104 264q0 158 -104 262t-264 104q-154 0 -260 -106q-104 -104 -104 -260q0 -157 102 -262q103 -106 262 -106zM834 1464v2q331 0 556 -216q224 -215 224 -540q0 -328 -224 -540q-226 -214 -556 -214q-329 0 -554 216q-224 215 -224 538t224 538
q225 216 554 216zM1142 1842l6 -2q-15 -132 -106 -214q-93 -84 -210 -84q-116 0 -210 82q-92 83 -110 216h188q9 -53 44 -82q37 -28 84 -28q44 0 80 30t48 80h186v2z" />
    <glyph glyph-name="obreve" unicode="&#x14f;" horiz-adv-x="1274" 
d="M634 288l2 -4q90 0 154 64q62 62 62 158q0 93 -60 156q-64 64 -156 64q-90 0 -154 -64t-64 -154q0 -94 62 -156q64 -64 154 -64zM636 1034v2q259 0 424 -156q164 -152 164 -378q0 -225 -164 -380q-165 -156 -422 -156q-258 0 -424 154q-164 155 -164 382q0 220 162 376
q159 156 424 156zM950 1466l6 -2q-15 -132 -106 -214q-93 -84 -210 -84q-116 0 -210 82q-92 83 -110 216h188q9 -53 44 -82q37 -28 84 -28q44 0 80 30t48 80h186v2z" />
    <glyph glyph-name="Ohungarumlaut" unicode="&#x150;" horiz-adv-x="1672" 
d="M834 344q160 0 264 104t104 264q0 158 -104 262t-264 104q-154 0 -260 -106q-104 -104 -104 -260q0 -157 102 -262q103 -106 262 -106zM834 1464v2q331 0 556 -216q224 -215 224 -540q0 -328 -224 -540q-226 -214 -556 -214q-329 0 -554 216q-224 215 -224 538t224 538
q225 216 554 216zM1372 1818l2 -2l-350 -272l-140 132l304 316zM930 1820l2 -4l-350 -272l-140 132l304 316l184 -174v2z" />
    <glyph glyph-name="ohungarumlaut" unicode="&#x151;" horiz-adv-x="1274" 
d="M634 288l2 -4q90 0 154 64q62 62 62 158q0 93 -60 156q-64 64 -156 64q-90 0 -154 -64t-64 -154q0 -94 62 -156q64 -64 154 -64zM636 1034v2q259 0 424 -156q164 -152 164 -378q0 -225 -164 -380q-165 -156 -422 -156q-258 0 -424 154q-164 155 -164 382q0 220 162 376
q159 156 424 156zM1150 1418l2 -2l-350 -272l-140 132l304 316zM710 1420l2 -4l-350 -272l-140 132l304 316l184 -174v2z" />
    <glyph glyph-name="OE" unicode="&#x152;" horiz-adv-x="2192" 
d="M2114 -4v4h-892v116q-69 -72 -184 -116q-114 -44 -246 -44q-311 0 -524 216q-212 215 -212 540q0 323 212 538q213 216 524 216q130 0 244 -44q115 -44 184 -116v116h872v-338h-494v-206h468v-332h-468v-212h516v-338zM834 346v-2q160 0 264 104t104 264q0 158 -104 262
t-264 104q-154 0 -260 -106q-104 -104 -104 -260q0 -157 102 -262q103 -106 262 -106v2z" />
    <glyph glyph-name="oe" unicode="&#x153;" horiz-adv-x="1992" 
d="M1942 406l-2 4h-744q15 -81 70 -124q56 -44 132 -44q55 0 104 20q53 22 78 52l340 -94q-177 -252 -520 -252q-236 0 -388 158q-158 -158 -382 -158q-258 0 -416 152q-160 154 -160 382q0 220 156 376t418 156q233 0 386 -156q144 156 376 156q258 0 404 -152
q148 -154 148 -408v-68zM1196 616h368q-12 79 -60 124q-47 44 -120 44q-155 0 -188 -168zM628 290v-6q87 0 148 64q60 63 60 158q0 92 -58 156q-61 64 -150 64q-87 0 -148 -64q-60 -63 -60 -154q0 -92 58 -156t150 -64v2z" />
    <glyph glyph-name="Racute" unicode="&#x154;" horiz-adv-x="1370" 
d="M1342 2l-2 -2h-468l-312 480h-32v-480h-400v1424h582q268 0 408 -122q140 -119 140 -340q0 -316 -290 -424zM526 794v2h144q87 0 136 40q48 42 48 114q0 152 -192 152h-136v-308zM920 1820l2 -4l-350 -272l-140 132l304 316l184 -174v2z" />
    <glyph glyph-name="racute" unicode="&#x155;" horiz-adv-x="868" 
d="M852 1028v-2l-40 -336q-36 12 -84 12q-146 0 -250 -128v-572h-356v1006h340v-148h22q109 178 280 178q38 0 88 -10zM768 1420l2 -4l-350 -272l-140 132l304 316l184 -174v2z" />
    <glyph glyph-name="Rcommaaccent" unicode="&#x156;" horiz-adv-x="1370" 
d="M1342 2l-2 -2h-468l-312 480h-32v-480h-400v1424h582q268 0 408 -122q140 -119 140 -340q0 -316 -290 -424zM526 794v2h144q87 0 136 40q48 42 48 114q0 152 -192 152h-136v-308zM662 -374l2 -2q-79 3 -120 38q-40 34 -40 98q0 70 52 116q50 44 144 44q82 0 138 -44
t56 -116q0 -77 -44 -144q-45 -70 -130 -128h-180q90 77 122 136v2z" />
    <glyph glyph-name="rcommaaccent" unicode="&#x157;" horiz-adv-x="868" 
d="M852 1028v-2l-40 -336q-36 12 -84 12q-146 0 -250 -128v-572h-356v1006h340v-148h22q109 178 280 178q38 0 88 -10zM414 -374l2 -2q-79 3 -120 38q-40 34 -40 98q0 70 52 116q50 44 144 44q82 0 138 -44t56 -116q0 -77 -44 -144q-45 -70 -130 -128h-180q90 77 122 136v2z
" />
    <glyph glyph-name="Rcaron" unicode="&#x158;" horiz-adv-x="1370" 
d="M1342 2l-2 -2h-468l-312 480h-32v-480h-400v1424h582q268 0 408 -122q140 -119 140 -340q0 -316 -290 -424zM526 794v2h144q87 0 136 40q48 42 48 114q0 152 -192 152h-136v-308zM984 1842v-2l-344 -296l-344 296l136 148l208 -184l208 184l136 -148v2z" />
    <glyph glyph-name="rcaron" unicode="&#x159;" horiz-adv-x="868" 
d="M852 1028v-2l-40 -336q-36 12 -84 12q-146 0 -250 -128v-572h-356v1006h340v-148h22q109 178 280 178q38 0 88 -10zM800 1444v-2l-344 -296l-344 296l136 148l208 -184l208 184l136 -148v2z" />
    <glyph glyph-name="Sacute" unicode="&#x15a;" horiz-adv-x="1228" 
d="M964 1022l-4 -2q-197 112 -330 112q-66 0 -100 -28q-36 -27 -36 -70q0 -45 44 -74q46 -31 188 -78q247 -84 346 -192q100 -109 100 -292q0 -195 -154 -316q-153 -120 -410 -120q-152 0 -302 56q-155 58 -274 156l232 284q188 -164 352 -164q158 0 158 92q0 53 -56 88
q-61 38 -228 100q-226 86 -308 196q-82 109 -82 252q0 192 152 320t388 128q259 0 500 -140zM956 1820l2 -4l-350 -272l-140 132l304 316l184 -174v2z" />
    <glyph glyph-name="sacute" unicode="&#x15b;" horiz-adv-x="964" 
d="M784 698l-4 -4q-161 88 -284 88q-92 0 -92 -60q0 -40 40 -58q36 -14 110 -30q195 -39 284 -116q88 -76 88 -220q0 -148 -120 -238q-121 -88 -324 -88q-269 0 -446 120l148 246q156 -108 300 -108q100 0 100 66q0 59 -112 80q-204 36 -304 112t-100 220q0 139 112 236
q111 96 320 96q225 0 404 -88zM782 1420l2 -4l-350 -272l-140 132l304 316l184 -174v2z" />
    <glyph glyph-name="Scircumflex" unicode="&#x15c;" horiz-adv-x="1228" 
d="M964 1022l-4 -2q-197 112 -330 112q-66 0 -100 -28q-36 -27 -36 -70q0 -45 44 -74q46 -31 188 -78q247 -84 346 -192q100 -109 100 -292q0 -195 -154 -316q-153 -120 -410 -120q-152 0 -302 56q-155 58 -274 156l232 284q188 -164 352 -164q158 0 158 92q0 53 -56 88
q-61 38 -228 100q-226 86 -308 196q-82 109 -82 252q0 192 152 320t388 128q259 0 500 -140zM1000 1696v-2l-136 -148l-208 184l-208 -184l-136 148l344 296l344 -296v2z" />
    <glyph glyph-name="scircumflex" unicode="&#x15d;" horiz-adv-x="964" 
d="M784 698l-4 -4q-161 88 -284 88q-92 0 -92 -60q0 -40 40 -58q36 -14 110 -30q195 -39 284 -116q88 -76 88 -220q0 -148 -120 -238q-121 -88 -324 -88q-269 0 -446 120l148 246q156 -108 300 -108q100 0 100 66q0 59 -112 80q-204 36 -304 112t-100 220q0 139 112 236
q111 96 320 96q225 0 404 -88zM842 1296v-2l-136 -148l-208 184l-208 -184l-136 148l344 296l344 -296v2z" />
    <glyph glyph-name="Scedilla" unicode="&#x15e;" horiz-adv-x="1228" 
d="M966 1024l-6 -4q-197 112 -328 112q-136 0 -136 -96q0 -50 52 -84q48 -28 176 -72q252 -88 348 -196q100 -112 100 -290q0 -184 -134 -300q-137 -119 -364 -134l-12 -42q152 -21 152 -166q0 -198 -332 -198q-69 0 -156 14l24 144q56 -8 110 -8q154 0 154 60q0 40 -82 40
q-37 0 -76 -6l48 168q-268 36 -470 208l232 284q188 -164 354 -164q156 0 156 92q0 41 -36 74q-37 34 -246 116q-224 83 -308 192q-84 108 -84 254q0 192 152 320t388 128q253 0 500 -140l-176 -308v2z" />
    <glyph glyph-name="scedilla" unicode="&#x15f;" horiz-adv-x="964" 
d="M780 694v2q-155 88 -284 88q-92 0 -92 -62q0 -60 148 -90q195 -39 284 -116q88 -76 88 -218q0 -140 -104 -226q-106 -88 -284 -100l-14 -52q152 -21 152 -166q0 -198 -332 -198q-71 0 -158 14l24 144q56 -8 110 -8q152 0 152 60q0 40 -82 40q-37 0 -76 -6l52 176
q-205 24 -330 112l148 246q148 -106 300 -106q100 0 100 64q0 59 -112 80q-204 36 -304 112t-100 218q0 145 114 238q112 94 316 94q231 0 404 -88z" />
    <glyph glyph-name="Scaron" unicode="&#x160;" horiz-adv-x="1228" 
d="M964 1022l-4 -2q-197 112 -330 112q-66 0 -100 -28q-36 -27 -36 -70q0 -45 44 -74q46 -31 188 -78q247 -84 346 -192q100 -109 100 -292q0 -195 -154 -316q-153 -120 -410 -120q-152 0 -302 56q-155 58 -274 156l232 284q188 -164 352 -164q158 0 158 92q0 53 -56 88
q-61 38 -228 100q-226 86 -308 196q-82 109 -82 252q0 192 152 320t388 128q259 0 500 -140zM976 1842v-2l-344 -296l-344 296l136 148l208 -184l208 184l136 -148v2z" />
    <glyph glyph-name="scaron" unicode="&#x161;" horiz-adv-x="964" 
d="M784 698l-4 -4q-161 88 -284 88q-92 0 -92 -60q0 -40 40 -58q36 -14 110 -30q195 -39 284 -116q88 -76 88 -220q0 -148 -120 -238q-121 -88 -324 -88q-269 0 -446 120l148 246q156 -108 300 -108q100 0 100 66q0 59 -112 80q-204 36 -304 112t-100 220q0 139 112 236
q111 96 320 96q225 0 404 -88zM832 1402v-2l-344 -296l-344 296l136 148l208 -184l208 184l136 -148v2z" />
    <glyph glyph-name="Tcommaaccent" unicode="&#x162;" horiz-adv-x="1206" 
d="M1164 1424v-344h-362v-1080h-400v1080h-362v344h1124zM572 -374l2 -2q-79 3 -120 38q-40 34 -40 98q0 70 52 116q50 44 144 44q82 0 138 -44t56 -116q0 -77 -44 -144q-45 -70 -130 -128h-180q90 77 122 136v2z" />
    <glyph glyph-name="tcommaaccent" unicode="&#x163;" horiz-adv-x="730" 
d="M700 1006v-314h-160v-692h-356v692h-152v314h152v316h356v-316h160zM330 -374l2 -2q-79 3 -120 38q-40 34 -40 98q0 70 52 116q50 44 144 44q82 0 138 -44t56 -116q0 -77 -44 -144q-45 -70 -130 -128h-180q90 77 122 136v2z" />
    <glyph glyph-name="Tcaron" unicode="&#x164;" horiz-adv-x="1206" 
d="M1164 1424v-344h-362v-1080h-400v1080h-362v344h1124zM950 1842v-2l-344 -296l-344 296l136 148l208 -184l208 184l136 -148v2z" />
    <glyph glyph-name="tcaron" unicode="&#x165;" horiz-adv-x="1220" 
d="M966 884l2 2h-184q104 125 138 214q-56 18 -92 66t-36 108q0 81 56 134q57 54 132 54q77 0 134 -54q56 -50 56 -134q0 -77 -40 -160q-37 -76 -166 -230zM700 694v-2h-162v-692h-356v692h-154v314h154v316h356v-316h162v-314v2z" />
    <glyph glyph-name="Tbar" unicode="&#x166;" horiz-adv-x="1208" 
d="M1162 1084l4 -2h-364v-400h300v-288h-300v-396h-400v396h-300v288h300v400h-364v344h1124v-344v2z" />
    <glyph glyph-name="tbar" unicode="&#x167;" horiz-adv-x="730" 
d="M700 694v-2h-162v-228h136v-228h-136v-236h-356v236h-144v228h144v228h-154v314h154v316h356v-316h162v-314v2z" />
    <glyph glyph-name="Utilde" unicode="&#x168;" horiz-adv-x="1526" 
d="M1404 518h-4q0 -256 -176 -408t-460 -152t-460 152t-176 408v908h400v-860q0 -112 64 -176t176 -64q110 0 174 64q62 62 62 176v860h400v-908zM1100 1816l-4 -4q-21 -268 -208 -268q-59 0 -148 40q-51 24 -76 24q-50 0 -62 -64h-170q21 268 208 268q59 0 148 -40
q54 -24 78 -24q52 0 64 66h170v2z" />
    <glyph glyph-name="utilde" unicode="&#x169;" horiz-adv-x="1226" 
d="M1118 412v-2q0 -205 -134 -324q-136 -118 -374 -118q-235 0 -370 120q-134 119 -134 324v596h356v-536q0 -196 148 -196q152 0 152 196v536h356v-596zM950 1450l-4 -4q-21 -268 -208 -268q-59 0 -148 40q-51 24 -76 24q-50 0 -62 -64h-170q21 268 208 268q59 0 148 -40
q54 -24 78 -24q52 0 64 66h170v2z" />
    <glyph glyph-name="Umacron" unicode="&#x16a;" horiz-adv-x="1526" 
d="M1404 518h-4q0 -256 -176 -408t-460 -152t-460 152t-176 408v908h400v-860q0 -112 64 -176t176 -64q110 0 174 64q62 62 62 176v860h400v-908zM1096 1586v-2h-668v192h668v-192v2z" />
    <glyph glyph-name="umacron" unicode="&#x16b;" horiz-adv-x="1226" 
d="M1118 412v-2q0 -205 -134 -324q-136 -118 -374 -118q-235 0 -370 120q-134 119 -134 324v596h356v-536q0 -196 148 -196q152 0 152 196v536h356v-596zM946 1222v-2h-668v192h668v-192v2z" />
    <glyph glyph-name="Ubreve" unicode="&#x16c;" horiz-adv-x="1526" 
d="M1404 518h-4q0 -256 -176 -408t-460 -152t-460 152t-176 408v908h400v-860q0 -112 64 -176t176 -64q110 0 174 64q62 62 62 176v860h400v-908zM1070 1844l6 -2q-15 -132 -106 -214q-93 -84 -210 -84q-116 0 -210 82q-92 83 -110 216h188q9 -53 44 -82q37 -28 84 -28
q44 0 80 30t48 80h186v2z" />
    <glyph glyph-name="ubreve" unicode="&#x16d;" horiz-adv-x="1226" 
d="M1118 412v-2q0 -205 -134 -324q-136 -118 -374 -118q-235 0 -370 120q-134 119 -134 324v596h356v-536q0 -196 148 -196q152 0 152 196v536h356v-596zM924 1466l6 -2q-15 -132 -106 -214q-93 -84 -210 -84q-116 0 -210 82q-92 83 -110 216h188q9 -53 44 -82
q37 -28 84 -28q44 0 80 30t48 80h186v2z" />
    <glyph glyph-name="Uring" unicode="&#x16e;" horiz-adv-x="1526" 
d="M1404 518h-4q0 -256 -176 -408t-460 -152t-460 152t-176 408v908h400v-860q0 -112 64 -176t176 -64q110 0 174 64q62 62 62 176v860h400v-908zM764 2008q100 0 172 -72t72 -172t-72 -172t-172 -72t-172 72t-72 172t72 172t172 72zM764 1670v-2q40 0 68 28t28 68t-28 68
t-68 28t-68 -28t-28 -68t28 -68t68 -28v2z" />
    <glyph glyph-name="uring" unicode="&#x16f;" horiz-adv-x="1226" 
d="M1118 412v-2q0 -205 -134 -324q-136 -118 -374 -118q-235 0 -370 120q-134 119 -134 324v596h356v-536q0 -196 148 -196q152 0 152 196v536h356v-596zM612 1604q100 0 172 -72t72 -172t-72 -172t-172 -72t-172 72t-72 172t72 172t172 72zM612 1266v-2q40 0 68 28t28 68
t-28 68t-68 28t-68 -28t-28 -68t28 -68t68 -28v2z" />
    <glyph glyph-name="Uhungarumlaut" unicode="&#x170;" horiz-adv-x="1526" 
d="M1404 518h-4q0 -256 -176 -408t-460 -152t-460 152t-176 408v908h400v-860q0 -112 64 -176t176 -64q110 0 174 64q62 62 62 176v860h400v-908zM1264 1818l2 -2l-350 -272l-140 132l304 316zM822 1820l2 -4l-350 -272l-140 132l304 316l184 -174v2z" />
    <glyph glyph-name="uhungarumlaut" unicode="&#x171;" horiz-adv-x="1226" 
d="M1118 412v-2q0 -205 -134 -324q-136 -118 -374 -118q-235 0 -370 120q-134 119 -134 324v596h356v-536q0 -196 148 -196q152 0 152 196v536h356v-596zM1106 1418l2 -2l-350 -272l-140 132l304 316zM664 1420l2 -4l-350 -272l-140 132l304 316l184 -174v2z" />
    <glyph glyph-name="Uogonek" unicode="&#x172;" horiz-adv-x="1526" 
d="M1404 510l-4 8q0 -233 -144 -380q-146 -149 -388 -176q-92 -86 -92 -170q0 -68 80 -68q48 0 114 18l-32 -160q-77 -20 -164 -20q-86 0 -138 52t-52 132q0 109 104 210q-255 21 -408 168q-152 146 -152 384v908h400v-860q0 -112 64 -176t176 -64q110 0 174 64
q62 62 62 176v860h400v-908v2z" />
    <glyph glyph-name="uogonek" unicode="&#x173;" horiz-adv-x="1226" 
d="M1114 406l4 4q0 -180 -102 -294q-108 -114 -292 -140q-108 -87 -108 -182q0 -68 80 -68q49 0 112 18l-30 -160q-77 -20 -164 -20q-86 0 -138 52t-52 132q0 115 114 220q-206 15 -320 132q-116 116 -116 304v596h356v-536q0 -194 148 -194q152 0 152 194v536h356v-596v2z
" />
    <glyph glyph-name="Wcircumflex" unicode="&#x174;" horiz-adv-x="2004" 
d="M1944 1422l8 2l-368 -1424h-408q-136 534 -152 612q-12 62 -24 152q-17 -140 -46 -248l-132 -516h-408l-368 1424h398q183 -854 186 -920q23 160 52 274l168 644h292l136 -522q48 -179 62 -262q5 -28 20 -134l36 210l150 708h398zM1348 1696v-2l-136 -148l-208 184
l-208 -184l-136 148l344 296l344 -296v2z" />
    <glyph glyph-name="wcircumflex" unicode="&#x175;" horiz-adv-x="1700" 
d="M1328 1006h360l-410 -1006h-276l-148 440l-158 -440h-274l-408 1006h360l188 -500l174 500h228l174 -500zM1194 1296v-2l-136 -148l-208 184l-208 -184l-136 148l344 296l344 -296v2z" />
    <glyph glyph-name="Ycircumflex" unicode="&#x176;" horiz-adv-x="1474" 
d="M1454 1424h-2l-516 -816v-608h-400v608l-516 816h444l272 -460l276 460h442zM1080 1696v-2l-136 -148l-208 184l-208 -184l-136 148l344 296l344 -296v2z" />
    <glyph glyph-name="ycircumflex" unicode="&#x177;" horiz-adv-x="1212" 
d="M844 1006h360l-616 -1450h-356l200 464l-414 986h372l228 -596zM954 1296v-2l-136 -148l-208 184l-208 -184l-136 148l344 296l344 -296v2z" />
    <glyph glyph-name="Ydieresis" unicode="&#x178;" horiz-adv-x="1474" 
d="M1454 1424h-2l-516 -816v-608h-400v608l-516 816h444l272 -460l276 460h442zM978 1904l-2 -2q74 0 126 -52t52 -124q0 -71 -52 -126q-52 -52 -126 -52q-72 0 -124 52t-52 126t52 126t126 52zM502 1906l-2 -4q74 0 126 -52t52 -124q0 -74 -52 -126t-126 -52q-72 0 -124 52
t-52 126t52 126t126 52v2z" />
    <glyph glyph-name="Zacute" unicode="&#x179;" horiz-adv-x="1410" 
d="M144 1424h1204l-632 -1080h580v-344h-1236l632 1080h-548v344zM1054 1820l2 -4l-350 -272l-140 132l304 316l184 -174v2z" />
    <glyph glyph-name="zacute" unicode="&#x17a;" horiz-adv-x="1058" 
d="M1022 1008l-2 -2l-460 -740h426v-266h-960l462 740h-400v268h934zM870 1420l2 -4l-350 -272l-140 132l304 316l184 -174v2z" />
    <glyph glyph-name="Zdotaccent" unicode="&#x17b;" horiz-adv-x="1410" 
d="M144 1424h1204l-632 -1080h580v-344h-1236l632 1080h-548v344zM718 1904l-2 -2q71 0 126 -52q52 -52 52 -124q0 -71 -52 -126q-55 -52 -126 -52q-72 0 -124 52t-52 126q0 72 52 124t126 52v2z" />
    <glyph glyph-name="zdotaccent" unicode="&#x17c;" horiz-adv-x="1058" 
d="M1022 1008l-2 -2l-460 -740h426v-266h-960l462 740h-400v268h934zM568 1498l-2 -2q71 0 126 -52q52 -52 52 -124q0 -71 -52 -126q-55 -52 -126 -52q-72 0 -124 52t-52 126q0 72 52 124t126 52v2z" />
    <glyph glyph-name="Zcaron" unicode="&#x17d;" horiz-adv-x="1410" 
d="M144 1424h1204l-632 -1080h580v-344h-1236l632 1080h-548v344zM1068 1842v-2l-344 -296l-344 296l136 148l208 -184l208 184l136 -148v2z" />
    <glyph glyph-name="zcaron" unicode="&#x17e;" horiz-adv-x="1058" 
d="M1022 1008l-2 -2l-460 -740h426v-266h-960l462 740h-400v268h934zM892 1402v-2l-344 -296l-344 296l136 148l208 -184l208 184l136 -148v2z" />
    <glyph glyph-name="longs" unicode="&#x17f;" horiz-adv-x="790" 
d="M798 1182l2 -4q-63 18 -146 18q-108 0 -108 -124v-1072h-356v1092q0 201 104 308q102 108 288 108q125 0 216 -20v-308v2z" />
    <glyph glyph-name="florin" unicode="&#x192;" 
d="M1186 1480l2 -4l-52 -310q-75 36 -130 36q-50 0 -90 -28q-39 -27 -54 -168h212l-60 -314h-204l-120 -686q-6 -135 -62 -290q-57 -160 -380 -160q-119 0 -222 28l48 300q69 -36 132 -36q112 0 136 148l112 696h-154l60 314h150q17 144 40 220q21 70 64 124q47 59 100 90
q60 38 122 52q70 16 140 16q81 0 210 -30v2z" />
    <glyph glyph-name="uni01CE" unicode="&#x1ce;" horiz-adv-x="1342" 
d="M1218 -2l2 2h-340v108q-131 -140 -336 -140q-224 0 -358 152q-136 154 -136 380q0 232 146 384t360 152q190 0 322 -144v112h340v-1006zM644 272q100 0 160 66t60 170q0 100 -62 162q-64 64 -154 64q-100 0 -164 -64t-64 -168q0 -100 60 -166q61 -64 164 -64zM908 1444
v-2l-344 -296l-344 296l136 148l208 -184l208 184l136 -148v2z" />
    <glyph glyph-name="uni01D0" unicode="&#x1d0;" horiz-adv-x="602" 
d="M480 1006v-1006h-356v1006h356zM644 1444v-2l-344 -296l-344 296l136 148l208 -184l208 184l136 -148v2z" />
    <glyph glyph-name="uni01D2" unicode="&#x1d2;" horiz-adv-x="1274" 
d="M634 288l2 -4q90 0 154 64q62 62 62 158q0 93 -60 156q-64 64 -156 64q-90 0 -154 -64t-64 -154q0 -94 62 -156q64 -64 154 -64zM636 1034v2q259 0 424 -156q164 -152 164 -378q0 -225 -164 -380q-165 -156 -422 -156q-258 0 -424 154q-164 155 -164 382q0 220 162 376
q159 156 424 156zM980 1444v-2l-344 -296l-344 296l136 148l208 -184l208 184l136 -148v2z" />
    <glyph glyph-name="uni01D4" unicode="&#x1d4;" horiz-adv-x="1226" 
d="M1118 412v-2q0 -205 -134 -324q-136 -118 -374 -118q-235 0 -370 120q-134 119 -134 324v596h356v-536q0 -196 148 -196q152 0 152 196v536h356v-596zM956 1444v-2l-344 -296l-344 296l136 148l208 -184l208 184l136 -148v2z" />
    <glyph glyph-name="uni01D6" unicode="&#x1d6;" horiz-adv-x="1226" 
d="M1118 412v-2q0 -205 -134 -324q-136 -118 -374 -118q-235 0 -370 120q-134 119 -134 324v596h356v-536q0 -196 148 -196q152 0 152 196v536h356v-596zM850 1498l-2 -2q74 0 126 -52t52 -124q0 -71 -52 -126q-52 -52 -126 -52q-72 0 -124 52t-52 126t52 126t126 52z
M376 1498l-2 -2q74 0 126 -52t52 -124q0 -74 -52 -126t-126 -52q-72 0 -124 52t-52 126t52 126t126 52zM958 1598v-2h-668v192h668v-192v2z" />
    <glyph glyph-name="uni01D8" unicode="&#x1d8;" horiz-adv-x="1226" 
d="M1118 412v-2q0 -205 -134 -324q-136 -118 -374 -118q-235 0 -370 120q-134 119 -134 324v596h356v-536q0 -196 148 -196q152 0 152 196v536h356v-596zM850 1498l-2 -2q74 0 126 -52t52 -124q0 -71 -52 -126q-52 -52 -126 -52q-72 0 -124 52t-52 126t52 126t126 52z
M376 1498l-2 -2q74 0 126 -52t52 -124q0 -74 -52 -126t-126 -52q-72 0 -124 52t-52 126t52 126t126 52zM938 1872l2 -4l-350 -272l-140 132l304 316l184 -174v2z" />
    <glyph glyph-name="uni01DA" unicode="&#x1da;" horiz-adv-x="1226" 
d="M1118 412v-2q0 -205 -134 -324q-136 -118 -374 -118q-235 0 -370 120q-134 119 -134 324v596h356v-536q0 -196 148 -196q152 0 152 196v536h356v-596zM850 1498l-2 -2q74 0 126 -52t52 -124q0 -71 -52 -126q-52 -52 -126 -52q-72 0 -124 52t-52 126t52 126t126 52z
M376 1498l-2 -2q74 0 126 -52t52 -124q0 -74 -52 -126t-126 -52q-72 0 -124 52t-52 126t52 126t126 52zM956 1896v-2l-344 -296l-344 296l136 148l208 -184l208 184l136 -148v2z" />
    <glyph glyph-name="uni01DC" unicode="&#x1dc;" horiz-adv-x="1226" 
d="M1118 412v-2q0 -205 -134 -324q-136 -118 -374 -118q-235 0 -370 120q-134 119 -134 324v596h356v-536q0 -196 148 -196q152 0 152 196v536h356v-596zM850 1498l-2 -2q74 0 126 -52t52 -124q0 -71 -52 -126q-52 -52 -126 -52q-72 0 -124 52t-52 126t52 126t126 52z
M376 1498l-2 -2q74 0 126 -52t52 -124q0 -74 -52 -126t-126 -52q-72 0 -124 52t-52 126t52 126t126 52zM780 1728h2l-140 -132l-350 272l184 174l304 -316v2z" />
    <glyph glyph-name="Aringacute" unicode="&#x1fa;" horiz-adv-x="1586" 
d="M1562 0h2h-398l-84 216h-592l-82 -216h-390l560 1386q-72 81 -72 188q0 116 80 196t196 80t196 -80t80 -196q0 -107 -72 -188zM784 1466q44 0 76 32t32 76q0 45 -32 74q-32 32 -76 32q-42 0 -74 -32q-32 -29 -32 -74q0 -44 32 -76t74 -32zM618 544h334l-170 428z
M1086 2196l2 -4l-350 -272l-140 132l304 316l184 -174v2z" />
    <glyph glyph-name="aringacute" unicode="&#x1fb;" horiz-adv-x="1342" 
d="M1218 -2l2 2h-340v108q-131 -140 -336 -140q-224 0 -358 152q-136 154 -136 380q0 232 146 384t360 152q190 0 322 -144v112h340v-1006zM644 272q100 0 160 66t60 170q0 100 -62 162q-64 64 -154 64q-100 0 -164 -64t-64 -168q0 -100 60 -166q61 -64 164 -64zM642 1604
q100 0 172 -72t72 -172t-72 -172t-172 -72t-172 72t-72 172t72 172t172 72zM642 1264q40 0 68 28t28 68t-28 68t-68 28t-68 -28t-28 -68t28 -68t68 -28zM960 1960l2 -4l-350 -272l-140 132l304 316l184 -174v2z" />
    <glyph glyph-name="AEacute" unicode="&#x1fc;" horiz-adv-x="2034" 
d="M2012 -2v2h-846l-84 216h-592l-82 -216h-390l576 1424h816l144 -338h-442l86 -206h406l140 -332h-408l88 -212h444zM618 544h334l-170 430zM1328 1824l2 -4l-350 -272l-140 132l304 316l184 -174v2z" />
    <glyph glyph-name="aeacute" unicode="&#x1fd;" horiz-adv-x="1850" 
d="M1794 414l4 -4h-724q15 -78 68 -122t122 -44q115 0 172 72l340 -94q-87 -123 -216 -186q-131 -64 -276 -64q-256 0 -414 200q-155 -200 -404 -200q-190 0 -300 92q-114 93 -114 260q0 160 116 252q118 94 292 94q155 0 252 -62v36q0 68 -68 106q-67 38 -176 38
q-175 0 -326 -68v256q186 64 354 64q167 0 252 -44q88 -45 138 -134q165 180 396 180q224 0 368 -156t144 -404v-68zM1422 616h2q-12 80 -56 124t-112 44q-69 0 -116 -44q-50 -47 -64 -124h346zM562 204l2 4q68 0 110 36t42 84q0 58 -38 90q-40 34 -108 34q-72 0 -114 -36
t-42 -92q0 -54 40 -88q38 -32 108 -32zM1218 1420l2 -4l-350 -272l-140 132l304 316l184 -174v2z" />
    <glyph glyph-name="Oslashacute" unicode="&#x1fe;" horiz-adv-x="1672" 
d="M1604 1346h-4l-152 -154q168 -201 168 -478q0 -328 -224 -540q-226 -214 -556 -214q-269 0 -474 148l-188 -188l-132 150l176 176q-158 203 -158 468q0 323 224 538q225 216 554 216q261 0 464 -140l162 162zM1018 1050v-2q-85 44 -184 44q-159 0 -264 -108
q-106 -109 -106 -268q0 -96 40 -182zM642 388h-2q89 -52 194 -52q163 0 268 108q106 109 106 270q0 108 -48 192zM1126 1822l2 -4l-350 -272l-140 132l304 316l184 -174v2z" />
    <glyph glyph-name="oslashacute" unicode="&#x1ff;" horiz-adv-x="1274" 
d="M1224 948l4 2l-124 -116q116 -143 116 -330q0 -225 -164 -380q-165 -156 -422 -156q-193 0 -340 90l-140 -132l-108 116l124 120q-124 142 -124 340q0 220 162 376q159 156 424 156q201 0 352 -98l132 128zM744 702v2q-49 26 -106 26q-98 0 -160 -68q-64 -70 -64 -160
q0 -51 18 -96zM542 294l2 2q43 -20 92 -20q97 0 160 66q64 70 64 164q0 46 -14 80zM954 1420l2 -4l-350 -272l-140 132l304 316l184 -174v2z" />
    <glyph glyph-name="Scommaaccent" unicode="&#x218;" horiz-adv-x="1228" 
d="M964 1022l-4 -2q-197 112 -330 112q-66 0 -100 -28q-36 -27 -36 -70q0 -45 44 -74q46 -31 188 -78q247 -84 346 -192q100 -109 100 -292q0 -195 -154 -316q-153 -120 -410 -120q-152 0 -302 56q-155 58 -274 156l232 284q188 -164 352 -164q158 0 158 92q0 53 -56 88
q-61 38 -228 100q-226 86 -308 196q-82 109 -82 252q0 192 152 320t388 128q259 0 500 -140zM590 -374l2 -2q-79 3 -120 38q-40 34 -40 98q0 70 52 116q50 44 144 44q82 0 138 -44t56 -116q0 -77 -44 -144q-45 -70 -130 -128h-180q90 77 122 136v2z" />
    <glyph glyph-name="scommaaccent" unicode="&#x219;" horiz-adv-x="964" 
d="M784 698l-4 -4q-161 88 -284 88q-92 0 -92 -60q0 -40 40 -58q36 -14 110 -30q195 -39 284 -116q88 -76 88 -220q0 -148 -120 -238q-121 -88 -324 -88q-269 0 -446 120l148 246q156 -108 300 -108q100 0 100 66q0 59 -112 80q-204 36 -304 112t-100 220q0 139 112 236
q111 96 320 96q225 0 404 -88zM470 -374l2 -2q-79 3 -120 38q-40 34 -40 98q0 70 52 116q50 44 144 44q82 0 138 -44t56 -116q0 -77 -44 -144q-45 -70 -130 -128h-180q90 77 122 136v2z" />
    <glyph glyph-name="circumflex" unicode="&#x2c6;" horiz-adv-x="912" 
d="M800 1296v-2l-136 -148l-208 184l-208 -184l-136 148l344 296l344 -296v2z" />
    <glyph glyph-name="tilde" unicode="&#x2dc;" horiz-adv-x="912" 
d="M796 1450l-4 -4q-21 -268 -208 -268q-59 0 -148 40q-51 24 -76 24q-50 0 -62 -64h-170q21 268 208 268q59 0 148 -40q54 -24 78 -24q52 0 64 66h170v2z" />
    <glyph glyph-name="Wgrave" unicode="&#x1e80;" horiz-adv-x="2004" 
d="M1944 1422l8 2l-368 -1424h-408q-136 534 -152 612q-12 62 -24 152q-17 -140 -46 -248l-132 -516h-408l-368 1424h398q183 -854 186 -920q23 160 52 274l168 644h292l136 -522q48 -179 62 -262q5 -28 20 -134l36 210l150 708h398zM1276 1676h2l-140 -132l-350 272
l184 174l304 -316v2z" />
    <glyph glyph-name="wgrave" unicode="&#x1e81;" horiz-adv-x="1700" 
d="M1328 1006h360l-410 -1006h-276l-148 440l-158 -440h-274l-408 1006h360l188 -500l174 500h228l174 -500zM1080 1276h2l-140 -132l-350 272l184 174l304 -316v2z" />
    <glyph glyph-name="Wacute" unicode="&#x1e82;" horiz-adv-x="2004" 
d="M1944 1422l8 2l-368 -1424h-408q-136 534 -152 612q-12 62 -24 152q-17 -140 -46 -248l-132 -516h-408l-368 1424h398q183 -854 186 -920q23 160 52 274l168 644h292l136 -522q48 -179 62 -262q5 -28 20 -134l36 210l150 708h398zM1210 1820l2 -4l-350 -272l-140 132
l304 316l184 -174v2z" />
    <glyph glyph-name="wacute" unicode="&#x1e83;" horiz-adv-x="1700" 
d="M1328 1006h360l-410 -1006h-276l-148 440l-158 -440h-274l-408 1006h360l188 -500l174 500h228l174 -500zM1090 1420l2 -4l-350 -272l-140 132l304 316l184 -174v2z" />
    <glyph glyph-name="Wdieresis" unicode="&#x1e84;" horiz-adv-x="2004" 
d="M1944 1422l8 2l-368 -1424h-408q-136 534 -152 612q-12 62 -24 152q-17 -140 -46 -248l-132 -516h-408l-368 1424h398q183 -854 186 -920q23 160 52 274l168 644h292l136 -522q48 -179 62 -262q5 -28 20 -134l36 210l150 708h398zM1242 1904l-2 -2q74 0 126 -52t52 -124
q0 -71 -52 -126q-52 -52 -126 -52q-72 0 -124 52t-52 126t52 126t126 52zM766 1906l-2 -4q74 0 126 -52t52 -124q0 -74 -52 -126t-126 -52q-72 0 -124 52t-52 126t52 126t126 52v2z" />
    <glyph glyph-name="wdieresis" unicode="&#x1e85;" horiz-adv-x="1700" 
d="M1328 1006h360l-410 -1006h-276l-148 440l-158 -440h-274l-408 1006h360l188 -500l174 500h228l174 -500zM1090 1498l-2 -2q74 0 126 -52t52 -124q0 -71 -52 -126q-52 -52 -126 -52q-72 0 -124 52t-52 126t52 126t126 52zM614 1500l-2 -4q74 0 126 -52t52 -124
q0 -74 -52 -126t-126 -52q-72 0 -124 52t-52 126t52 126t126 52v2z" />
    <glyph glyph-name="Ygrave" unicode="&#x1ef2;" horiz-adv-x="1474" 
d="M1454 1424h-2l-516 -816v-608h-400v608l-516 816h444l272 -460l276 460h442zM982 1676h2l-140 -132l-350 272l184 174l304 -316v2z" />
    <glyph glyph-name="ygrave" unicode="&#x1ef3;" horiz-adv-x="1212" 
d="M844 1006h360l-616 -1450h-356l200 464l-414 986h372l228 -596zM824 1276h2l-140 -132l-350 272l184 174l304 -316v2z" />
    <glyph glyph-name="endash" unicode="&#x2013;" horiz-adv-x="1024" 
d="M1036 408v-2h-1048v244h1048v-244v2z" />
    <glyph glyph-name="emdash" unicode="&#x2014;" horiz-adv-x="2048" 
d="M2060 408v-2h-2072v244h2072v-244v2z" />
    <glyph glyph-name="afii00208" unicode="&#x2015;" horiz-adv-x="1536" 
d="M1548 408v-2h-1560v246h1560v-246v2z" />
    <glyph glyph-name="underscoredbl" unicode="&#x2017;" horiz-adv-x="1024" 
d="M1036 -152v-104h-1048v104h1048zM1036 -458v-2h-1048v104h1048v-104v2z" />
    <glyph glyph-name="quoteleft" unicode="&#x2018;" horiz-adv-x="634" 
d="M546 1446h-6q-103 -156 -152 -300q66 -22 104 -78q40 -55 40 -120q0 -87 -60 -150q-62 -62 -150 -62q-89 0 -148 62q-60 63 -60 150q0 175 228 496h204v2z" />
    <glyph glyph-name="quoteright" unicode="&#x2019;" horiz-adv-x="634" 
d="M244 1064l4 -4q-67 22 -104 74q-40 58 -40 122q0 88 62 150t150 62q89 0 148 -62q60 -63 60 -150q0 -173 -228 -494h-204q103 156 152 300v2z" />
    <glyph glyph-name="quotesinglbase" unicode="&#x201a;" horiz-adv-x="634" 
d="M244 -14l4 -4q-67 22 -104 74q-40 58 -40 122q0 84 64 148t148 64q89 0 148 -62q60 -63 60 -150q0 -173 -228 -494h-204q103 156 152 300v2z" />
    <glyph glyph-name="quotereversed" unicode="&#x201b;" horiz-adv-x="634" 
d="M542 738l-2 2h-204q-228 330 -228 494q0 87 60 150q59 62 148 62q88 0 150 -62t62 -150q0 -66 -40 -124q-38 -52 -100 -74q47 -138 154 -300v2z" />
    <glyph glyph-name="quotedblleft" unicode="&#x201c;" horiz-adv-x="1168" 
d="M1076 1444l-4 2q-103 -156 -152 -300q66 -22 104 -78q40 -55 40 -120q0 -88 -62 -150t-150 -62q-89 0 -148 62q-60 63 -60 150q0 175 228 496h204zM546 1446h-6q-103 -156 -152 -300q66 -22 104 -78q40 -55 40 -120q0 -87 -60 -150q-62 -62 -150 -62q-89 0 -148 62
q-60 63 -60 150q0 175 228 496h204v2z" />
    <glyph glyph-name="quotedblright" unicode="&#x201d;" horiz-adv-x="1168" 
d="M778 1062l4 -2q-67 22 -104 74q-40 58 -40 122q0 86 62 148q64 64 150 64q89 0 148 -62q60 -63 60 -150q0 -173 -228 -494h-204q103 156 152 300zM244 1064l4 -4q-67 22 -104 74q-40 58 -40 122q0 88 62 150t150 62q89 0 148 -62q60 -63 60 -150q0 -173 -228 -494h-204
q103 156 152 300v2z" />
    <glyph glyph-name="quotedblbase" unicode="&#x201e;" horiz-adv-x="1168" 
d="M778 -16l4 -2q-67 22 -104 74q-40 58 -40 122q0 86 62 148q64 64 150 64q89 0 148 -62q60 -63 60 -150q0 -173 -228 -494h-204q103 156 152 300zM244 -14l4 -4q-67 22 -104 74q-40 58 -40 122q0 84 64 148t148 64q89 0 148 -62q60 -63 60 -150q0 -173 -228 -494h-204
q103 156 152 300v2z" />
    <glyph glyph-name="dagger" unicode="&#x2020;" horiz-adv-x="1098" 
d="M1000 730v-2h-292v-1172h-316v1172h-292v276h292v462h316v-462h292v-276v2z" />
    <glyph glyph-name="daggerdbl" unicode="&#x2021;" horiz-adv-x="1098" 
d="M1000 10v-2h-292v-452h-316v452h-292v276h292v442h-292v276h292v462h316v-462h292v-276h-292v-442h292v-276v2z" />
    <glyph glyph-name="bullet" unicode="&#x2022;" horiz-adv-x="730" 
d="M362 1016l2 -2q124 0 212 -88t88 -212t-88 -212t-212 -88t-212 88q-90 87 -90 212q0 124 88 212t212 88v2z" />
    <glyph glyph-name="ellipsis" unicode="&#x2026;" horiz-adv-x="2048" 
d="M1706 388q88 0 150 -62q62 -59 62 -146t-60 -150q-62 -62 -148 -62q-87 0 -150 60q-62 62 -62 148q0 88 62 150q59 62 146 62zM1022 388q88 0 150 -62q62 -59 62 -146t-60 -150q-62 -62 -148 -62q-87 0 -150 60q-62 62 -62 148q0 88 62 150q59 62 146 62zM340 386v2
q88 0 150 -62q62 -59 62 -146t-60 -150q-62 -62 -148 -62q-87 0 -150 60q-62 62 -62 148q0 89 62 148q59 62 146 62z" />
    <glyph glyph-name="perthousand" unicode="&#x2030;" horiz-adv-x="2522" 
d="M1178 1478l168 -100l-828 -1428l-168 98zM410 1458v-2q160 0 262 -102q100 -103 100 -252q0 -150 -100 -250q-103 -100 -262 -100q-160 0 -260 100q-102 99 -102 250q0 146 100 252q98 104 262 104zM410 950q69 0 108 42q40 43 40 110q0 66 -40 112q-38 44 -108 44
t-108 -44q-40 -46 -40 -112q0 -67 40 -110q39 -42 108 -42zM2112 676q160 0 262 -102q100 -103 100 -252q0 -150 -100 -250q-103 -100 -262 -100q-160 0 -260 100q-102 99 -102 250q0 150 102 252q99 102 260 102zM2112 170q68 0 108 40q40 43 40 110q0 66 -40 112
q-38 44 -108 44t-108 -44q-40 -46 -40 -112q0 -67 40 -110q40 -40 108 -40zM1286 678v-2q160 0 262 -102t102 -252q0 -151 -102 -250q-103 -100 -262 -100q-160 0 -260 100q-102 99 -102 250q0 146 100 252q98 104 262 104zM1286 168v2q68 0 108 40q40 43 40 110
q0 66 -40 112q-38 44 -108 44t-108 -44q-40 -46 -40 -112q0 -67 40 -110q39 -42 108 -42z" />
    <glyph glyph-name="minute" unicode="&#x2032;" horiz-adv-x="384" 
d="M400 1468l-2 -2l-52 -244l-104 -274h-112l12 274l52 244h206v2z" />
    <glyph glyph-name="second" unicode="&#x2033;" horiz-adv-x="726" 
d="M682 1466h-2l-52 -244l-104 -274h-112l12 274l52 244h206zM400 1468l-2 -2l-52 -244l-104 -274h-112l12 274l52 244h206v2z" />
    <glyph glyph-name="guilsinglleft" unicode="&#x2039;" horiz-adv-x="630" 
d="M578 226v-2l-212 -140l-314 464l314 460l212 -140l-222 -320l222 -324v2z" />
    <glyph glyph-name="guilsinglright" unicode="&#x203a;" horiz-adv-x="630" 
d="M52 872v-2l212 140l314 -460l-314 -464l-212 140l220 324l-220 320v2z" />
    <glyph glyph-name="exclamdbl" unicode="&#x203c;" horiz-adv-x="1196" 
d="M526 1468h-2l-16 -990h-338l-16 990h372zM1052 1468h-4l-16 -990h-336l-16 990h372zM338 -28v-2q-89 0 -148 62q-60 63 -60 150q0 88 60 148t148 60q87 0 150 -60q62 -59 62 -148q0 -88 -62 -150q-63 -60 -150 -60zM862 -28l2 -2q-87 0 -150 60q-62 62 -62 150
q0 89 62 148q60 60 148 60q86 0 146 -60t60 -148q0 -87 -60 -150q-60 -60 -146 -60v2z" />
    <glyph glyph-name="uni203E" unicode="&#x203e;" horiz-adv-x="1024" 
d="M1036 1582v-2h-1048v104h1048v-104v2z" />
    <glyph glyph-name="fraction" unicode="&#x2044;" horiz-adv-x="262" 
d="M618 1372l2 -2l-792 -1412l-188 108l790 1416l188 -112v2z" />
    <glyph glyph-name="franc" unicode="&#x20a3;" horiz-adv-x="1110" 
d="M1040 1090v-2h-514v-208h468v-332h-468v-118h324v-288h-324v-144h-400v144h-128v288h128v996h914v-338v2z" />
    <glyph glyph-name="lira" unicode="&#x20a4;" horiz-adv-x="1294" 
d="M1288 314l2 6q-51 -195 -140 -272q-93 -78 -250 -78q-96 0 -252 56t-230 56q-105 0 -138 -120l-272 44q57 303 282 372q2 14 2 58q0 6 -4 34h-250v152h204q-19 58 -26 82h-174v152h124q-26 90 -26 152q0 208 138 328t398 120q224 0 368 -114t144 -314h-350
q0 136 -152 136t-152 -158q0 -47 30 -152h320v-152h-274q5 -16 16 -84h258v-152h-240q3 -72 -4 -104q43 -11 140 -44q84 -28 108 -28q60 0 84 100l316 -78v2z" />
    <glyph glyph-name="peseta" unicode="&#x20a7;" horiz-adv-x="2954" 
d="M524 448h4v-448h-400v1426h552q279 0 426 -132q148 -133 148 -354q0 -220 -154 -356t-394 -136h-182zM528 1102v2v-336h144q83 0 134 48q50 47 50 120q0 166 -192 166h-136zM1988 1006v-314h-162v-692h-356v692h-154v314h154v316h356v-316h162zM2016 90l2 -2l148 246
q148 -106 300 -106q100 0 100 64q0 59 -110 80q-205 36 -306 112q-100 76 -100 218q0 143 114 236q115 94 318 94q231 0 404 -88l-120 -252q-155 88 -284 88q-92 0 -92 -62q0 -60 148 -90q195 -39 284 -116q86 -74 86 -218q0 -149 -120 -236q-121 -88 -324 -88
q-279 0 -448 118v2z" />
    <glyph glyph-name="Euro" unicode="&#x20ac;" 
d="M1214 18l-6 -2q-159 -56 -358 -56q-269 0 -460 140q-192 141 -264 384h-124l36 170h56q-2 14 -2 60q0 48 2 62h-94l36 170h92q81 239 276 380q194 140 440 140q196 0 364 -60v-388q-156 78 -348 78t-290 -152h482l-36 -170h-504l-4 -62q0 -12 4 -60h480l-36 -170h-388
q98 -152 306 -152q170 0 340 76v-390v2z" />
    <glyph glyph-name="afii61248" unicode="&#x2105;" horiz-adv-x="1750" 
d="M1346 1370h2l-792 -1412l-188 108l790 1416zM602 864h4q-83 -40 -172 -40q-136 0 -224 88t-88 224q0 135 88 226q86 92 220 92q98 0 174 -44v-192q-74 50 -146 50q-56 0 -92 -36t-36 -96t34 -94t90 -34q73 0 148 48v-192zM1286 -26l4 -2q-148 0 -242 88q-94 91 -94 226
q0 134 94 222q93 90 240 90t240 -90q92 -86 92 -222t-94 -224t-240 -88zM1288 418l2 -4q-53 0 -90 -40q-36 -39 -36 -92t36 -92q35 -38 88 -38q51 0 88 40q36 39 36 92t-36 92q-37 40 -88 40v2z" />
    <glyph glyph-name="afii61289" unicode="&#x2113;" horiz-adv-x="662" 
d="M362 656l-2 8v-416q0 -88 16 -110t42 -22q22 0 60 16q30 12 140 88v-162q-112 -88 -226 -88q-100 0 -148 60q-50 59 -50 180v224l-80 -98l-98 78l176 236v456q0 228 62 302q61 76 172 76q101 0 160 -68q60 -66 60 -172q0 -91 -60 -226q-60 -136 -224 -362zM358 902l2 -2
q102 176 124 234q22 66 22 118q0 57 -20 88q-20 32 -56 32q-28 0 -42 -20q-16 -20 -22 -74q-8 -51 -8 -150v-228v2z" />
    <glyph glyph-name="afii61352" unicode="&#x2116;" horiz-adv-x="2520" 
d="M1416 -2v2h-396l-366 590q-103 169 -160 274v-864h-368v1426h398l364 -586q96 -156 162 -276v860h366v-1426zM2002 560h2q-180 0 -294 108t-114 268q0 158 114 266t294 108q179 0 296 -108q114 -105 114 -266t-116 -268q-117 -108 -296 -108zM2002 1086l2 2
q-65 0 -108 -46q-44 -44 -44 -108q0 -66 44 -110t108 -44t108 44t44 110q0 64 -44 108t-110 44zM2416 226v-2h-820v218h820v-218v2z" />
    <glyph glyph-name="trademark" unicode="&#x2122;" horiz-adv-x="1794" 
d="M1700 640h2h-224l-60 368l-136 -368h-152l-144 368l-56 -368h-224l122 786h204l172 -416l160 416h208zM736 1238v-2h-212v-598h-228v598h-212v188h652v-188v2z" />
    <glyph glyph-name="Omega" unicode="&#x2126;" horiz-adv-x="1672" 
d="M1580 2l-4 -2h-548v168q152 57 254 216q100 161 100 348q0 232 -156 388t-392 156t-392 -156t-156 -388q0 -189 102 -348q99 -159 252 -216v-168h-548v174l304 -10q-304 226 -304 568q0 302 216 512q215 212 528 212t528 -212q216 -210 216 -512q0 -342 -304 -568l304 10
v-174v2z" />
    <glyph glyph-name="estimated" unicode="&#x212e;" horiz-adv-x="1230" 
d="M322 532h-2v-372q129 -120 298 -120q253 0 394 246l72 -44q-99 -141 -204 -210q-103 -68 -264 -68q-234 0 -382 160q-146 158 -146 404q0 248 148 408t384 160q212 0 366 -142q152 -140 164 -422h-828zM916 602v2v296q-129 120 -300 120q-177 0 -296 -122v-296h596z" />
    <glyph glyph-name="oneeighth" unicode="&#x215b;" horiz-adv-x="1894" 
d="M510 1444v-856h-258v656h-204l96 200h366zM1354 1370h2l-792 -1412l-188 108l790 1416zM1264 436h-6q-132 63 -132 184q0 109 96 172q98 64 244 64t244 -64q96 -63 96 -172q0 -121 -132 -184q148 -72 148 -220q0 -114 -100 -184q-98 -68 -252 -68q-156 0 -254 68
q-100 70 -100 184q0 148 148 220zM1464 686v-2q-41 0 -68 -24q-28 -25 -28 -60t28 -60q27 -24 68 -24q40 0 68 22q28 25 28 62t-28 62q-27 24 -68 24zM1458 350l6 -2q-47 0 -78 -28q-32 -26 -32 -72q0 -45 32 -74q34 -28 76 -28t76 28q32 29 32 74q0 46 -32 72
q-34 28 -80 28v2z" />
    <glyph glyph-name="threeeighths" unicode="&#x215c;" horiz-adv-x="1894" 
d="M640 1040q154 -45 154 -200q0 -119 -100 -192q-99 -72 -260 -72q-148 0 -250 72q-101 71 -110 208h224q12 -102 126 -102q48 0 80 26t32 72q0 98 -134 98h-64v166h64q112 0 112 92q0 39 -28 64q-27 24 -68 24q-46 0 -80 -28q-31 -25 -34 -80h-220q3 135 104 208
q99 72 246 72q150 0 248 -64q94 -64 94 -172q0 -147 -136 -192zM1454 1370h2l-792 -1412l-188 108l790 1416zM1266 436h-6q-132 63 -132 184q0 109 96 172q98 64 244 64t244 -64q96 -63 96 -172q0 -121 -132 -184q148 -72 148 -220q0 -114 -100 -184q-98 -68 -252 -68
q-156 0 -254 68q-100 70 -100 184q0 148 148 220zM1468 686v-2q-41 0 -68 -24q-28 -25 -28 -60t28 -60q27 -24 68 -24q40 0 68 22q28 25 28 62t-28 62q-27 24 -68 24zM1462 350l6 -2q-47 0 -78 -28q-32 -26 -32 -72q0 -45 32 -74q34 -28 76 -28t76 28q32 29 32 74
q0 46 -32 72q-34 28 -80 28v2z" />
    <glyph glyph-name="fiveeighths" unicode="&#x215d;" horiz-adv-x="1894" 
d="M388 1160h-4q32 4 64 4q147 0 230 -80q84 -78 84 -212q0 -137 -100 -222q-99 -84 -268 -84q-163 0 -338 118l118 170q111 -96 206 -96q60 0 100 34q36 33 36 88q0 124 -164 124q-108 0 -204 -30l68 472h508v-192h-324zM1454 1370h2l-792 -1412l-188 108l790 1416z
M1264 436h-6q-132 63 -132 184q0 109 96 172q98 64 244 64t244 -64q96 -63 96 -172q0 -121 -132 -184q148 -72 148 -220q0 -114 -100 -184q-98 -68 -252 -68q-156 0 -254 68q-100 70 -100 184q0 148 148 220zM1464 686v-2q-41 0 -68 -24q-28 -25 -28 -60t28 -60
q27 -24 68 -24q40 0 68 22q28 25 28 62t-28 62q-27 24 -68 24zM1458 350l6 -2q-47 0 -78 -28q-32 -26 -32 -72q0 -45 32 -74q34 -28 76 -28t76 28q32 29 32 74q0 46 -32 72q-34 28 -80 28v2z" />
    <glyph glyph-name="seveneighths" unicode="&#x215e;" horiz-adv-x="1894" 
d="M880 1444h2l-440 -856h-284l346 648h-352v208h728zM1374 1370h2l-792 -1412l-188 108l790 1416zM1264 436h-6q-132 63 -132 184q0 109 96 172q98 64 244 64t244 -64q96 -63 96 -172q0 -121 -132 -184q148 -72 148 -220q0 -114 -100 -184q-98 -68 -252 -68q-156 0 -254 68
q-100 70 -100 184q0 148 148 220zM1464 686v-2q-41 0 -68 -24q-28 -25 -28 -60t28 -60q27 -24 68 -24q40 0 68 22q28 25 28 62t-28 62q-27 24 -68 24zM1458 350l6 -2q-47 0 -78 -28q-32 -26 -32 -72q0 -45 32 -74q34 -28 76 -28t76 28q32 29 32 74q0 46 -32 72
q-34 28 -80 28v2z" />
  </font>
</defs>
</svg>
