<?xml version="1.0" encoding="UTF-8" ?>
<!DOCTYPE svg PUBLIC "-//W3C//DTD SVG 1.1//EN" "http://www.w3.org/Graphics/SVG/1.1/DTD/svg11.dtd">
<svg width="900pt" height="900pt" viewBox="0 0 900 900" version="1.1" xmlns="http://www.w3.org/2000/svg">
    <g id="#100e14ff">
        <path fill="#100e14" opacity="1.00"
              d=" M 254.43 109.46 C 306.45 105.76 356.30 144.11 368.77 194.23 C 380.11 234.56 366.60 280.48 335.43 308.44 C 303.09 339.71 251.05 347.75 210.55 328.44 C 162.34 307.11 133.68 250.39 146.10 199.00 C 155.95 149.04 203.39 109.36 254.43 109.46 M 250.42 119.52 C 195.68 122.16 150.18 174.32 154.43 228.89 C 155.45 272.93 188.15 314.35 230.98 324.98 C 285.27 341.81 347.19 304.12 359.00 249.01 C 369.99 207.47 351.89 160.56 316.42 136.58 C 297.43 123.04 273.51 117.62 250.42 119.52 Z"/>
        <path fill="#100e14" opacity="1.00"
              d=" M 684.47 156.51 C 721.77 152.87 757.08 185.58 756.65 222.95 C 758.39 261.19 738.76 296.02 734.32 333.23 C 772.94 366.89 817.66 402.21 828.88 455.09 C 835.39 483.58 816.30 511.34 792.66 525.62 C 786.21 530.48 778.02 532.72 772.33 538.61 C 778.83 615.95 787.02 693.10 794.73 770.32 C 794.83 777.51 798.57 787.19 792.76 792.56 C 709.49 791.71 626.20 791.37 542.97 789.66 C 536.15 790.17 521.22 792.70 523.57 781.64 C 535.35 768.08 548.44 755.72 559.81 741.81 C 567.14 733.30 579.80 725.49 577.45 712.56 C 570.99 672.06 569.68 630.99 566.71 590.17 C 566.91 578.49 553.71 590.82 547.96 587.10 C 542.41 575.23 548.75 558.77 540.10 548.95 C 512.42 539.17 480.84 521.62 476.64 489.46 C 473.07 462.42 487.70 437.12 503.11 416.10 C 534.93 373.28 578.36 341.21 619.53 308.25 C 619.07 289.21 615.25 270.27 612.58 251.47 C 605.24 244.21 591.57 244.84 585.42 235.46 C 583.54 230.23 587.17 224.95 589.38 220.36 C 609.16 186.27 644.58 159.95 684.47 156.51 M 685.42 166.45 C 653.08 168.85 624.51 189.13 605.78 214.73 C 602.39 220.36 596.92 225.39 597.09 232.45 C 604.47 237.93 615.55 236.33 621.65 243.32 C 625.93 257.45 624.92 272.84 629.31 286.96 C 636.10 285.95 642.59 283.13 649.54 283.30 C 655.91 285.77 658.39 298.26 666.90 293.79 C 678.44 286.60 691.48 293.52 702.21 298.87 C 703.62 311.42 689.86 303.41 683.23 301.80 C 674.11 298.64 667.61 308.15 658.74 307.81 C 654.09 303.50 650.09 297.19 644.90 294.26 C 634.07 294.69 627.68 302.92 630.58 313.57 C 585.34 347.84 538.74 382.83 506.02 430.05 C 491.94 450.91 478.90 478.74 491.77 503.30 C 506.07 526.36 532.95 536.92 557.90 544.09 C 562.48 544.74 565.71 551.20 560.52 553.58 C 551.63 556.32 555.72 567.83 557.85 574.50 C 569.89 570.33 582.92 567.87 593.47 560.32 C 592.97 522.31 596.40 484.01 592.89 446.21 C 580.64 446.27 569.01 450.73 556.89 452.04 C 546.08 451.38 546.00 468.97 554.92 472.06 C 560.82 473.21 560.47 478.68 557.41 482.79 C 548.74 480.00 540.07 477.02 531.85 473.13 C 526.17 470.46 529.21 460.60 535.55 463.54 C 538.09 457.87 538.62 451.14 539.96 445.55 C 559.48 440.19 579.84 436.43 599.91 433.55 C 614.31 438.29 625.21 451.04 638.71 457.55 C 657.02 455.30 673.02 443.97 691.28 441.19 C 698.36 451.03 695.55 463.99 700.79 474.61 C 716.05 473.69 731.47 466.10 740.99 453.98 C 745.39 449.10 740.66 437.17 750.27 438.12 C 756.99 445.00 753.10 456.79 747.23 463.24 C 728.23 481.97 699.91 488.78 674.21 491.67 C 669.45 481.30 683.60 482.37 688.64 476.38 C 686.76 469.01 688.90 460.01 683.00 454.28 C 669.63 458.38 656.39 463.17 643.49 468.60 C 644.22 501.80 647.92 534.90 650.39 568.03 C 650.55 574.15 649.81 581.08 654.35 585.95 C 669.57 583.26 684.97 581.05 699.82 576.76 C 708.02 574.47 704.10 564.82 701.60 559.26 C 694.34 558.66 676.59 566.15 680.20 553.37 C 707.92 545.69 737.91 542.37 764.33 529.34 C 790.15 518.55 817.43 499.31 820.07 469.00 C 820.10 443.85 806.91 420.65 791.24 401.75 C 772.54 377.45 748.15 358.52 725.01 338.87 C 721.97 321.42 729.73 304.03 734.41 287.33 C 742.66 259.27 753.15 228.34 741.30 199.71 C 732.25 178.38 708.61 164.05 685.42 166.45 M 607.20 451.39 C 604.76 452.72 605.48 458.02 604.74 460.94 C 604.44 493.77 604.68 526.61 604.43 559.44 C 614.24 568.61 626.44 576.82 639.54 579.97 C 638.36 542.64 635.58 505.18 631.94 468.04 C 626.55 460.14 616.31 453.31 607.20 451.39 M 754.38 544.47 C 741.43 549.27 727.23 550.63 714.95 557.09 C 711.66 565.18 722.32 579.49 711.91 584.87 C 690.04 588.81 668.29 594.90 646.31 597.54 C 630.65 590.49 616.11 580.04 601.46 571.41 C 591.75 571.38 575.81 575.51 577.35 588.04 C 578.58 631.91 582.02 675.74 589.13 719.07 C 589.86 724.46 585.77 728.75 582.52 732.52 C 570.07 745.78 557.84 759.25 545.45 772.57 C 545.42 774.58 545.40 776.59 545.38 778.61 C 570.38 782.14 595.85 779.25 621.00 781.35 C 630.46 780.75 641.08 783.03 649.57 777.82 C 650.65 730.26 648.94 682.61 649.69 635.00 C 650.35 626.11 647.75 616.53 652.19 608.29 C 658.30 607.15 660.18 614.10 659.98 618.95 C 660.40 671.82 660.41 724.85 660.36 777.80 C 672.77 785.38 688.30 780.27 702.00 782.23 C 728.29 781.27 754.61 783.17 780.95 782.70 C 783.63 779.80 784.87 775.96 784.43 772.04 C 777.06 697.17 769.76 621.87 762.88 547.22 C 760.71 544.05 758.05 542.43 754.38 544.47 Z"/>
        <path fill="#100e14" opacity="1.00"
              d=" M 438.42 157.43 C 446.88 156.44 455.72 160.78 459.35 168.65 C 468.06 181.90 452.18 201.57 437.35 195.70 C 418.20 190.90 419.78 161.23 438.42 157.43 M 441.33 167.43 C 430.60 168.54 431.59 187.91 442.68 186.52 C 453.78 185.46 453.24 165.60 441.33 167.43 Z"/>
        <path fill="#100e14" opacity="1.00"
              d=" M 253.36 166.39 C 283.33 158.59 306.00 199.37 285.56 221.57 C 280.90 230.43 265.11 229.46 265.69 240.97 C 268.19 248.07 259.69 258.59 254.19 249.79 C 251.38 239.86 248.62 220.89 263.31 220.22 C 280.48 218.14 285.31 192.80 271.78 183.23 C 260.26 173.57 240.14 181.66 238.91 196.86 C 239.73 203.90 230.81 209.20 226.06 202.76 C 221.67 185.98 236.75 168.81 253.36 166.39 Z"/>
        <path fill="#100e14" opacity="1.00"
              d=" M 533.38 173.59 C 549.46 170.05 552.54 199.08 535.91 199.66 C 519.12 201.97 515.81 173.93 533.38 173.59 M 532.72 183.60 C 528.98 194.77 543.44 184.01 532.72 183.60 Z"/>
        <path fill="#100e14" opacity="1.00"
              d=" M 646.61 221.94 C 655.98 217.63 658.21 238.17 648.00 235.65 C 639.89 235.84 638.45 223.21 646.61 221.94 Z"/>
        <path fill="#100e14" opacity="1.00"
              d=" M 257.38 264.54 C 267.55 262.77 267.22 280.60 257.29 278.56 C 250.38 276.64 251.45 266.89 257.38 264.54 Z"/>
        <path fill="#100e14" opacity="1.00"
              d=" M 234.41 481.92 C 247.90 484.27 259.12 496.83 271.69 503.30 C 277.03 507.17 288.49 511.35 283.77 519.73 C 267.47 546.15 249.07 571.28 233.00 597.86 C 230.34 600.54 231.79 605.90 236.06 604.82 C 290.97 606.50 346.03 604.29 400.93 606.46 C 402.22 609.14 403.56 611.92 403.52 614.97 C 403.26 671.95 403.94 728.98 402.63 785.92 C 399.60 788.25 396.00 789.97 392.08 789.52 C 336.15 789.28 280.27 788.04 224.32 788.59 C 216.07 779.20 220.92 765.36 219.49 753.99 C 221.42 717.37 219.42 680.61 221.35 644.00 C 221.15 636.58 222.22 628.53 218.21 621.86 C 188.19 664.73 161.19 709.55 131.52 752.67 C 123.06 764.94 116.53 779.03 104.86 788.68 C 91.36 784.56 81.73 773.05 69.12 766.94 C 63.01 763.02 50.97 757.05 57.63 748.63 C 102.55 679.38 148.82 610.98 193.87 541.86 C 207.36 521.88 219.36 500.70 234.41 481.92 M 237.55 495.42 C 183.27 574.07 132.58 655.64 79.00 734.97 C 75.25 740.89 70.69 746.53 68.89 753.45 C 79.42 761.36 89.78 772.38 103.41 773.83 C 157.30 694.88 209.14 614.55 261.67 534.65 C 265.84 529.18 269.28 523.19 271.82 516.79 C 261.23 508.92 250.30 498.53 237.55 495.42 M 234.18 615.38 C 231.77 616.10 232.18 620.71 231.55 623.13 C 231.44 666.42 229.98 709.69 230.38 753.00 C 230.87 761.47 228.76 770.46 232.54 778.44 C 284.56 779.50 336.55 779.51 388.65 779.57 C 390.76 777.32 393.45 775.31 392.54 771.86 C 392.16 720.56 393.43 669.22 392.61 617.98 C 390.61 616.69 388.49 615.28 386.00 615.45 C 335.39 615.39 284.79 615.34 234.18 615.38 Z"/>
        <path fill="#100e14" opacity="1.00"
              d=" M 532.08 499.18 C 541.28 500.89 550.77 504.63 558.71 508.52 C 563.57 523.22 546.04 514.50 538.87 512.06 C 532.28 511.73 524.66 503.08 532.08 499.18 Z"/>
        <path fill="#100e14" opacity="1.00"
              d=" M 696.38 514.16 C 702.24 511.33 713.65 514.88 706.59 521.72 C 698.19 523.99 688.88 525.30 680.04 526.64 C 669.31 517.77 689.47 514.82 696.38 514.16 Z"/>
    </g>
</svg>
